<?xml version="1.0" standalone="no"?>
  <!DOCTYPE svg PUBLIC "-//W3C//DTD SVG 1.1//EN" "http://www.w3.org/Graphics/SVG/1.1/DTD/svg11.dtd" >
  <svg>
  <metadata>
  Created by font-carrier
  </metadata>
  <defs>
  <font id="BacktoBlackDemo" horiz-adv-x="1759" vert-adv-y="1759" >
    <font-face
      
      font-family="Back to Black Demo"
      
      font-weight="400"
      
      font-stretch="normal"
      
      units-per-em="1000"
      
      ascent="750"
      
      descent="-250"
      
    />
      <missing-glyph />

      

      
      <glyph glyph-name="uni6e" unicode="&#x6e;" d="M385 376Q383 342 370 304.50Q357 267 340.50 231Q324 195 307.50 162.50Q291 130 282 106Q273 82 274.50 67.50Q276 53 296 53Q305 53 321 67.50Q337 82 356 105.50Q375 129 395.50 158.50Q416 188 434 217Q452 246 466 272.50Q480 299 486 316Q489 324 496 326Q503 328 509 326Q515 324 518.50 318Q522 312 518 305Q510 288 495 258.50Q480 229 459.50 195.50Q439 162 415 128Q391 94 365.50 66Q340 38 314 20Q288 2 264 2Q244 1 230 11.50Q216 22 207 40Q198 58 194.50 80.50Q191 103 194 126Q199 167 213 207Q227 247 243.50 283.50Q260 320 276 350.50Q292 381 300 403.50Q308 426 305.50 438Q303 450 282 449Q271 448 251 431.50Q231 415 207.50 389.50Q184 364 160 333.50Q136 303 117 275Q98 236 77.50 197.50Q57 159 41 125Q25 91 17.50 65Q10 39 17 25Q21 17 10.50 8.50Q0 0-16.50-0.50Q-33-1-50.50 10Q-68 21-77 51Q-85 75-76 114Q-67 153-50 197.50Q-33 242-12 288.50Q9 335 26 374Q43 413 51 441Q59 469 51 477Q44 483 57.50 491Q71 499 91.50 500Q112 501 133 491Q154 481 163 451Q167 438 166 422.50Q165 407 161 390Q180 412 199.50 432Q219 452 239 467Q259 482 278 491Q297 500 315 500Q354 501 373 466Q392 431 385 376Z"  horiz-adv-x="486" vert-adv-y="1000"  />

      
      <glyph glyph-name="uni68" unicode="&#x68;" d="M-78 51Q-84 69-74.50 109Q-65 149-45.50 202.50Q-26 256 0 318Q26 380 53.50 443Q81 506 106.50 565.50Q132 625 151 672Q170 719 179 750Q188 781 182 787Q175 793 188.50 801Q202 809 222.50 810Q243 811 264 801Q285 791 294 761Q300 742 291 706Q282 670 264 622.50Q246 575 221 519Q196 463 169 406Q204 445 240.50 472Q277 499 309 500Q348 501 367 466Q386 431 379 376Q377 342 364 304.50Q351 267 334.50 231Q318 195 301.50 162.50Q285 130 276 106Q267 82 268.50 67.50Q270 53 290 53Q299 53 315 67.50Q331 82 350 105.50Q369 129 389.50 158.50Q410 188 428 217Q446 246 460 272.50Q474 299 480 316Q483 324 490 326Q497 328 503 326Q509 324 512.50 318Q516 312 512 305Q504 288 489 258.50Q474 229 453.50 195.50Q433 162 409 128Q385 94 359.50 66Q334 38 308 20Q282 2 258 2Q238 1 224 11.50Q210 22 201 40Q192 58 188.50 80.50Q185 103 188 126Q193 167 207 207Q221 247 237.50 283.50Q254 320 270 350.50Q286 381 294 403.50Q302 426 299.50 438Q297 450 276 449Q263 448 238.50 427Q214 406 187 374.50Q160 343 134 307.50Q108 272 92 243L79 216L79 215L77 211Q45 140 26.50 90Q8 40 16 25Q20 17 9.50 8.50Q-1 0-17.50-0.50Q-34-1-51.50 10Q-69 21-78 51Z"  horiz-adv-x="480" vert-adv-y="1000"  />

      
      <glyph glyph-name="uni69" unicode="&#x69;" d="M190 551Q190 543 174 543Q158 543 139.50 550.50Q121 558 105 574.50Q89 591 89 616Q89 623 95 634.50Q101 646 108.50 659Q116 672 122 683Q128 694 128 700Q128 707 143 707Q158 707 176.50 699Q195 691 210 675Q225 659 225 634Q225 628 219.50 617Q214 606 207.50 594Q201 582 195.50 570Q190 558 190 551M262 305Q266 312 262.50 318Q259 324 253 326Q247 328 240 326Q233 324 230 316Q224 299 210 273Q196 247 178 218Q160 189 140 160Q120 131 101 107.50Q82 84 66.50 69Q51 54 41 53Q18 51 20.50 71.50Q23 92 39.50 126.50Q56 161 80.50 205Q105 249 126.50 294Q148 339 160 380.50Q172 422 163 451Q154 481 132.50 491Q111 501 91 500Q71 499 57.50 491Q44 483 51 477Q58 470 53.50 451Q49 432 37.50 404Q26 376 10.50 341.50Q-5 307-20 270Q-35 233-46.50 196Q-58 159-62 126Q-65 99-62 75.50Q-59 52-50 35.50Q-41 19-26.50 10Q-12 1 8 2Q32 2 58 20Q84 38 109.50 66Q135 94 159 128Q183 162 203.50 195.50Q224 229 239 258.50Q254 288 262 305Z"  horiz-adv-x="230" vert-adv-y="1000"  />

      
      <glyph glyph-name="uni6c" unicode="&#x6c;" d="M262 305Q254 288 239 258.50Q224 229 203.50 195.50Q183 162 159 128Q135 94 109.50 66Q84 38 58 20Q32 2 8 2Q-12 1-26.50 10Q-41 19-50 35.50Q-59 52-62 75.50Q-65 99-62 126Q-58 159-37 219Q-16 279 13 350.50Q42 422 74 496.50Q106 571 131.50 633.50Q157 696 171 738Q185 780 178 787Q171 793 184.50 801Q198 809 218 810Q238 811 259.50 801Q281 791 290 761Q297 739 286 696.50Q275 654 253.50 600Q232 546 203 483.50Q174 421 144.50 360Q115 299 88.50 242.50Q62 186 45.50 143.50Q29 101 26.50 76Q24 51 41 53Q51 54 66.50 69Q82 84 101 107.50Q120 131 140 160Q160 189 178 218Q196 247 210 273Q224 299 230 316Q233 324 240 326Q247 328 253 326Q259 324 262.50 318Q266 312 262 305Z"  horiz-adv-x="230" vert-adv-y="1000"  />

      
      <glyph glyph-name="uni6d" unicode="&#x6d;" d="M613 376Q611 342 598 304.50Q585 267 568.50 231Q552 195 535.50 162.50Q519 130 510 106Q501 82 502.50 67.50Q504 53 524 53Q533 53 549 67.50Q565 82 584 105.50Q603 129 623.50 158.50Q644 188 662 217Q680 246 694 272.50Q708 299 714 316Q717 324 724 326Q731 328 737 326Q743 324 746.50 318Q750 312 746 305Q738 288 723 258.50Q708 229 687.50 195.50Q667 162 643 128Q619 94 593.50 66Q568 38 542 20Q516 2 492 2Q472 1 458 11.50Q444 22 435 40Q426 58 422.50 80.50Q419 103 422 126Q427 167 441 207Q455 247 471.50 283Q488 319 504 349.50Q520 380 528 402.50Q536 425 533.50 437Q531 449 510 449Q500 449 483.50 434Q467 419 447 394Q427 369 405.50 336.50Q384 304 362.50 269.50Q341 235 322 201Q303 167 289 138Q271 94 261 63Q251 32 261 24Q268 18 254.50 10Q241 2 221 1Q201 0 179.50 10Q158 20 149 50Q140 79 151.50 120.50Q163 162 184 207.50Q205 253 229 297Q253 341 269 376Q285 411 287 431.50Q289 452 266 450Q256 449 239.50 435Q223 421 204 399.50Q185 378 165.50 351Q146 324 129 297Q110 256 87.50 213.50Q65 171 47 134Q29 97 19.50 68.50Q10 40 18 25Q22 17 11.50 8.50Q1 0-15.50-0.50Q-32-1-49.50 10Q-67 21-76 51Q-84 75-75 114Q-66 153-49 197.50Q-32 242-11 288.50Q10 335 27 374Q44 413 52 441Q60 469 52 477Q45 483 58.50 491Q72 499 92.50 500Q113 501 134 491Q155 481 164 451Q170 433 165 406Q197 445 232 472.50Q267 500 299 501Q338 502 357 467Q376 432 369 377Q367 365 365 352.50Q363 340 359 327Q381 361 404 392.50Q427 424 451 448Q475 472 498 486Q521 500 543 500Q582 500 601 465.50Q620 431 613 376Z"  horiz-adv-x="711" vert-adv-y="1000"  />

      
      <glyph glyph-name="uni74" unicode="&#x74;" d="M-139 543Q-140 529-147 524.50Q-154 520-162.50 525.50Q-171 531-176.50 546.50Q-182 562-180 588Q-176 630-147 652Q-118 674-72.50 681.50Q-27 689 30.50 687Q88 685 150 679Q167 724 175 753Q183 782 178 787Q171 793 184.50 801Q198 809 218 810Q238 811 259.50 801Q281 791 290 761Q295 747 291 723Q287 699 278 669Q322 667 366 669Q410 671 445 676.50Q480 682 501.50 691Q523 700 523 713Q523 728 532 728.50Q541 729 550 721Q559 713 562.50 700Q566 687 554 676Q541 663 512.50 651.50Q484 640 444.50 631.50Q405 623 357 617Q309 611 257 610Q236 556 206.50 493Q177 430 147.50 367.50Q118 305 90.50 247.50Q63 190 46.50 146.50Q30 103 26.50 77Q23 51 41 53Q51 54 66.50 69Q82 84 101 107.50Q120 131 140 160Q160 189 178 218Q196 247 210 273Q224 299 230 316Q233 324 240 326Q247 328 253 326Q259 324 262.50 318Q266 312 262 305Q254 288 239 258.50Q224 229 203.50 195.50Q183 162 159 128Q135 94 109.50 66Q84 38 58 20Q32 2 8 2Q-12 1-26.50 10Q-41 19-50 35.50Q-59 52-62 75.50Q-65 99-62 126Q-58 157-38.50 213.50Q-19 270 8 337.50Q35 405 65.50 476.50Q96 548 122 610Q70 610 23 608.50Q-24 607-59.50 600Q-95 593-116.50 579.50Q-138 566-139 543Z"  horiz-adv-x="230" vert-adv-y="1000"  />

      
      <glyph glyph-name="uni61" unicode="&#x61;" d="M253 421Q253 429 257.50 436Q262 443 269 448Q264 460 253 460Q239 461 222 447.50Q205 434 185.50 408.50Q166 383 145 345.50Q124 308 103 262Q90 233 81.50 199.50Q73 166 72 135.50Q71 105 78 82Q85 59 103 52Q117 46 132.50 55Q148 64 163.50 83Q179 102 195.50 129Q212 156 227.50 185.50Q243 215 257.50 244.50Q272 274 285 299Q299 332 312.50 361.50Q326 391 335 414.50Q344 438 347 454.50Q350 471 344 477Q337 483 350.50 491Q364 499 384 500Q404 501 425.50 491Q447 481 456 451Q465 422 453 380.50Q441 339 419.50 294Q398 249 373.50 205Q349 161 332.50 126.50Q316 92 313.50 71.50Q311 51 334 53Q343 54 359 69Q375 84 394 107.50Q413 131 433.50 160Q454 189 471.50 218Q489 247 503 273Q517 299 523 316Q526 324 533 326Q540 328 546 326Q552 324 555.50 318Q559 312 555 305Q547 288 532 258.50Q517 229 496.50 195.50Q476 162 452 128Q428 94 402.50 66Q377 38 351 20Q325 2 301 2Q263 0 244 33Q225 66 230 117Q211 86 190 60.50Q169 35 144.50 20Q120 5 92.50 2Q65-1 32 13Q-8 29-25.50 60Q-43 91-46 127.50Q-49 164-40 203.50Q-31 243-18 276Q6 337 35.50 380.50Q65 424 98 451.50Q131 479 166 491Q201 503 237 502Q249 501 262.50 497.50Q276 494 287.50 486Q299 478 307 464.50Q315 451 315 431Q315 409 305 401Q297 392 284 392Q272 392 262.50 400Q253 408 253 421Z"  horiz-adv-x="523" vert-adv-y="1000"  />

      
      <glyph glyph-name="uni64" unicode="&#x64;" d="M253 421Q253 429 257.50 436Q262 443 269 448Q264 460 253 460Q239 461 222 447.50Q205 434 185.50 408.50Q166 383 145 345.50Q124 308 103 262Q90 233 81.50 199.50Q73 166 72 135.50Q71 105 78 82Q85 59 103 52Q124 43 147 65.50Q170 88 194 126Q218 164 240.50 210Q263 256 282 294Q301 343 324 397.50Q347 452 369.50 505Q392 558 412.50 607Q433 656 447.50 694.50Q462 733 468.50 757.50Q475 782 470 787Q463 793 476.50 801Q490 809 510 810Q530 811 551.50 801Q573 791 582 761Q589 739 578 696.50Q567 654 545.50 600Q524 546 495 483.50Q466 421 436.50 360Q407 299 380.50 242.50Q354 186 337.50 143.50Q321 101 318.50 76Q316 51 333 53Q343 54 358.50 69Q374 84 393 107.50Q412 131 432 160Q452 189 470 218Q488 247 502 273Q516 299 522 316Q525 324 532 326Q539 328 545 326Q551 324 554.50 318Q558 312 554 305Q546 288 531 258.50Q516 229 495.50 195.50Q475 162 451 128Q427 94 401.50 66Q376 38 350 20Q324 2 300 2Q262 0 243.50 32.50Q225 65 229 115Q210 84 189 59.50Q168 35 144 20Q120 5 92 2Q64-1 32 13Q-8 29-25.50 60Q-43 91-46 127.50Q-49 164-40 203.50Q-31 243-18 276Q6 337 35.50 380.50Q65 424 98 451.50Q131 479 166 491Q201 503 237 502Q249 501 262.50 497.50Q276 494 287.50 486Q299 478 307 464.50Q315 451 315 431Q315 411 306 402Q298 392 284 392Q272 392 262.50 400Q253 408 253 421Z"  horiz-adv-x="521" vert-adv-y="1000"  />

      
      <glyph glyph-name="uni63" unicode="&#x63;" d="M256 421Q256 429 260.50 436Q265 443 272 448Q267 460 256 460Q242 461 225 447.50Q208 434 188.50 408.50Q169 383 148 345.50Q127 308 106 262Q93 233 84.50 198Q76 163 74.50 132Q73 101 80 78.50Q87 56 106 52Q128 48 153.50 58.50Q179 69 205.50 90Q232 111 257.50 139Q283 167 305.50 198Q328 229 345.50 259.50Q363 290 373 316Q376 324 383 326.50Q390 329 398 325Q411 318 405 304Q389 269 365.50 229.50Q342 190 313 153Q284 116 250.50 83.50Q217 51 181.50 30.50Q146 10 108.50 4Q71-2 35 13Q-5 29-22.50 60Q-40 91-43 127.50Q-46 164-37 203.50Q-28 243-15 276Q9 337 38.50 380.50Q68 424 101 451.50Q134 479 169 491Q204 503 240 502Q252 501 265.50 497.50Q279 494 290.50 486Q302 478 310 464.50Q318 451 318 431Q318 411 309 402Q301 392 287 392Q275 392 265.50 400Q256 408 256 421Z"  horiz-adv-x="373" vert-adv-y="1000"  />

      
      <glyph glyph-name="uni65" unicode="&#x65;" d="M396 325Q408 317 402 303Q385 267 361.50 227.50Q338 188 308.50 150.50Q279 113 246 81.50Q213 50 177.50 30Q142 10 105 4Q68-2 32 13Q-8 29-25.50 59.50Q-43 90-46 127Q-49 164-40 203.50Q-31 243-18 276Q6 337 35.50 379.50Q65 422 98 449Q131 476 166 489Q201 502 237 502Q274 502 291.50 484Q309 466 309 437Q309 408 293 373Q277 338 247.50 304.50Q218 271 176 243.50Q134 216 82 202Q75 176 72 150.50Q69 125 71 104Q73 83 80.50 69Q88 55 103 52Q125 48 150.50 58.50Q176 69 202.50 90Q229 111 254.50 139Q280 167 302.50 198Q325 229 342.50 259.50Q360 290 370 316Q373 324 380.50 327Q388 330 396 325M103 262Q98 251 95 242Q155 263 193.50 299.50Q232 336 251 371.50Q270 407 270.50 433Q271 459 253 460Q226 461 185 408Q144 355 103 262Z"  horiz-adv-x="370" vert-adv-y="1000"  />

      
      <glyph glyph-name="uni62" unicode="&#x62;" d="M126 80Q126 61 109 53Q115 41 126 41Q139 40 156.50 53.50Q174 67 193.50 92.50Q213 118 234 155Q255 192 276 239Q289 268 297.50 302.50Q306 337 307.50 368Q309 399 302 421.50Q295 444 276 449Q253 454 228.50 435Q204 416 179.50 384Q155 352 131.50 311.50Q108 271 89 234Q71 195 55.50 160.50Q40 126 30.50 98.50Q21 71 17 52Q13 33 17 25Q21 17 10.50 8.50Q0 0-16.50-0.50Q-33-1-50.50 10Q-68 21-77 51Q-83 69-73.50 109Q-64 149-44.50 202.50Q-25 256 1 318Q27 380 54.50 443Q82 506 107.50 565.50Q133 625 152 672Q171 719 180 750Q189 781 183 787Q176 793 189.50 801Q203 809 223.50 810Q244 811 265 801Q286 791 295 761Q300 744 293.50 713Q287 682 272 641Q257 600 236.50 551.50Q216 503 192 452Q225 483 263.50 495Q302 507 347 488Q387 471 404.50 440.50Q422 410 425 373.50Q428 337 419 297.50Q410 258 397 225Q371 160 339 115Q307 70 272 43Q322 54 360.50 85.50Q399 117 434 159Q467 198 493.50 238.50Q520 279 537 312Q540 319 546 321.50Q552 324 561 319Q568 315 569.50 308Q571 301 568 295Q544 246 512.50 200Q481 154 443 111Q418 83 389.50 59.50Q361 36 325.50 20.50Q290 5 245-1Q200-7 142-1Q130 0 116.50 3.50Q103 7 91.50 15Q80 23 72 36.50Q64 50 64 70Q64 90 72 98Q81 109 95 109Q107 109 116.50 101Q126 93 126 80Z"  horiz-adv-x="537" vert-adv-y="1000"  />

      
      <glyph glyph-name="uni6b" unicode="&#x6b;" d="M-78 51Q-84 69-74.50 109Q-65 149-45.50 202.50Q-26 256 0 318Q26 380 53.50 443Q81 506 106.50 565.50Q132 625 151 672Q170 719 179 750Q188 781 182 787Q175 793 188.50 801Q202 809 222.50 810Q243 811 264 801Q285 791 294 761Q300 740 288 696Q276 652 253 594.50Q230 537 199.50 471Q169 405 138 340Q159 357 185 377.50Q211 398 237.50 420Q264 442 289 464.50Q314 487 333.50 506Q353 525 365 540.50Q377 556 377 565Q377 574 392 570Q407 566 422 551.50Q437 537 444 514.50Q451 492 435 465Q423 444 397.50 424Q372 404 340 386Q308 368 273 352Q238 336 206 323Q221 300 243.50 258Q266 216 294 165.50Q322 115 354 63Q386 11 420.50-32Q455-75 489.50-102.50Q524-130 557-131Q566-131 564.50-144.50Q563-158 551-174Q539-190 517-203.50Q495-217 464-216Q417-215 380-178Q343-141 313.50-85.50Q284-30 260.50 34.50Q237 99 217.50 156Q198 213 181.50 252.50Q165 292 148 298Q134 291 123.50 285.50Q113 280 106 275Q84 229 65.50 187.50Q47 146 34.50 113Q22 80 16.50 57Q11 34 16 25Q20 17 9.50 8.50Q-1 0-17.50-0.50Q-34-1-51.50 10Q-69 21-78 51Z"  horiz-adv-x="447" vert-adv-y="1000"  />

      
      <glyph glyph-name="uni70" unicode="&#x70;" d="M126 80Q126 61 109 53Q115 41 126 41Q139 40 156.50 53.50Q174 67 193.50 92.50Q213 118 234 155Q255 192 276 239Q289 268 297.50 302.50Q306 337 307.50 368Q309 399 302 421.50Q295 444 276 449Q259 453 240.50 443Q222 433 203.50 413.50Q185 394 166.50 367Q148 340 131 311Q111 259 83.50 198.50Q56 138 26.50 75.50Q-3 13-31-46Q-59-105-80-154Q-101-203-111.50-237Q-122-271-116-283Q-112-291-122.50-299.50Q-133-308-149.50-308.50Q-166-309-183.50-298Q-201-287-210-257Q-216-239-206.50-199Q-197-159-177.50-105.50Q-158-52-132 10Q-106 72-78.50 135Q-51 198-25.50 257.50Q0 317 19 364Q38 411 47 442Q56 473 50 479Q43 485 56.50 493Q70 501 90.50 502Q111 503 132 493Q153 483 162 453Q165 442 163 421Q201 467 246 488.50Q291 510 347 488Q387 471 404.50 440.50Q422 410 425 373.50Q428 337 419 297.50Q410 258 397 225Q371 160 339 115Q307 70 272 43Q322 54 360.50 85.50Q399 117 434 159Q467 198 493.50 238.50Q520 279 537 312Q540 319 546 321.50Q552 324 561 319Q568 315 569.50 308Q571 301 568 295Q544 246 512.50 200Q481 154 443 111Q418 83 390 59.50Q362 36 327.50 20.50Q293 5 251-1Q209-7 157-1L142-1Q130 0 116.50 3.50Q103 7 91.50 15Q80 23 72 36.50Q64 50 64 70Q64 92 73 99Q83 109 95 109Q107 109 116.50 101Q126 93 126 80Z"  horiz-adv-x="537" vert-adv-y="1000"  />

      
      <glyph glyph-name="uni6a" unicode="&#x6a;" d="M-366-244Q-367-235-363.50-222.50Q-360-210-346-196Q-330-180-307.50-167Q-285-154-260.50-142Q-236-130-212.50-117.50Q-189-105-172-90Q-157-47-133 9.50Q-109 66-82 126.50Q-55 187-28.50 246.50Q-2 306 17.50 355Q37 404 46.50 438Q56 472 49 481Q44 487 58 495Q72 503 93 504Q114 505 134.50 494Q155 483 164 452Q169 435 159 397.50Q149 360 131 313Q113 266 90 214.50Q67 163 46 117.50Q25 72 9 38Q-7 4-11-9Q25 15 64 58.50Q103 102 137 149.50Q171 197 197 242Q223 287 233 314Q236 323 243 325.50Q250 328 256 326Q262 324 265.50 318Q269 312 266 305Q243 254 208.50 197.50Q174 141 133 89Q92 37 47-4.50Q2-46-41-68Q-47-83-57-106.50Q-67-130-77.50-154Q-88-178-96.50-199Q-105-220-109-230Q-119-258-140.50-277.50Q-162-297-189-307.50Q-216-318-245-319.50Q-274-321-299-313.50Q-324-306-342.50-288.50Q-361-271-366-244M-186-135Q-201-147-220-156Q-239-165-258-174Q-277-183-294.50-194Q-312-205-323-220Q-330-230-328.50-242Q-327-254-319.50-263.50Q-312-273-300.50-278Q-289-283-275-279Q-261-275-246-259.50Q-231-244-218-212Q-212-198-203.50-179Q-195-160-186-135M190 551Q190 543 174 543Q158 543 139.50 550.50Q121 558 105 574.50Q89 591 89 616Q89 623 95 634.50Q101 646 108.50 659Q116 672 122 683Q128 694 128 700Q128 707 143 707Q158 707 176.50 699Q195 691 210 675Q225 659 225 634Q225 628 219.50 617Q214 606 207.50 594Q201 582 195.50 570Q190 558 190 551Z"  horiz-adv-x="233" vert-adv-y="1000"  />

      
      <glyph glyph-name="uni79" unicode="&#x79;" d="M-138-244Q-139-235-135.50-222.50Q-132-210-118-196Q-102-180-79.50-167Q-57-154-32.50-142Q-8-130 15.50-117.50Q39-105 56-90Q68-53 87.50-7.50Q107 38 129 89Q99 52 68 27.50Q37 3 8 2Q-12 1-26.50 10Q-41 19-50 35.50Q-59 52-62 75.50Q-65 99-62 126Q-58 159-46.50 196Q-35 233-20 270Q-5 307 10.50 341.50Q26 376 37.50 404Q49 432 53.50 451.50Q58 471 51 477Q44 483 57.50 491Q71 499 91 500Q111 501 132.50 491Q154 481 163 451Q172 422 160 380.50Q148 339 126.50 294Q105 249 80.50 205Q56 161 39.50 126.50Q23 92 20.50 71.50Q18 51 41 53Q53 54 76.50 78.50Q100 103 125.50 138.50Q151 174 176 214Q201 254 216 285Q232 322 245.50 355Q259 388 267.50 414Q276 440 279 457.50Q282 475 277 481Q272 487 286 495Q300 503 321 504Q342 505 362.50 494Q383 483 392 452Q397 435 387 397.50Q377 360 359 313Q341 266 318 214.50Q295 163 274 117.50Q253 72 237 38Q221 4 217-9Q253 15 292 58.50Q331 102 365 149.50Q399 197 425 242Q451 287 461 314Q464 323 471 325.50Q478 328 484 326Q490 324 493.50 318Q497 312 494 305Q471 254 436.50 197.50Q402 141 361 89Q320 37 275-4.50Q230-46 187-68Q181-83 171-106.50Q161-130 150.50-154Q140-178 131.50-199Q123-220 119-230Q109-258 87.50-277.50Q66-297 39-307.50Q12-318-17-319.50Q-46-321-71-313.50Q-96-306-114.50-288.50Q-133-271-138-244M42-135Q27-147 8-156Q-11-165-30-174Q-49-183-66.50-194Q-84-205-95-220Q-102-230-100.50-242Q-99-254-91.50-263.50Q-84-273-72.50-278Q-61-283-47-279Q-33-275-18-259.50Q-3-244 10-212Q16-198 24.50-179Q33-160 42-135Z"  horiz-adv-x="461" vert-adv-y="1000"  />

      
      <glyph glyph-name="uni67" unicode="&#x67;" d="M253 421Q253 429 257.50 436Q262 443 269 448Q264 460 253 460Q239 461 222 447.50Q205 434 185.50 408.50Q166 383 145 345.50Q124 308 103 262Q90 233 81.50 199.50Q73 166 72 135.50Q71 105 78 82Q85 59 103 52Q125 43 150 68.50Q175 94 200 136Q225 178 248.50 226.50Q272 275 292 312Q292 315 293 316Q320 380 334.50 425Q349 470 341 481Q336 487 350 495Q364 503 385 504Q406 505 426.50 494Q447 483 456 452Q461 435 451 397.50Q441 360 423 313Q405 266 382 214.50Q359 163 338 117.50Q317 72 301 38Q285 4 281-9Q317 15 356 58.50Q395 102 429 149.50Q463 197 489 242Q515 287 525 314Q528 323 535 325.50Q542 328 548 326Q554 324 557.50 318Q561 312 558 305Q535 254 500.50 197.50Q466 141 425 89Q384 37 339-4.50Q294-46 251-68Q245-83 235-106.50Q225-130 214.50-154Q204-178 195.50-199Q187-220 183-230Q173-258 151.50-277.50Q130-297 103-307.50Q76-318 47-319.50Q18-321-7-313.50Q-32-306-50.50-288.50Q-69-271-74-244Q-75-235-71.50-222.50Q-68-210-54-196Q-38-180-15.50-167Q7-154 31.50-142Q56-130 79.50-117.50Q103-105 120-90Q130-62 143.50-28Q157 6 173 43Q144 15 109.50 5.50Q75-4 32 13Q-8 29-25.50 60Q-43 91-46 127.50Q-49 164-40 203.50Q-31 243-18 276Q6 337 35.50 380.50Q65 424 98 451.50Q131 479 166 491Q201 503 237 502Q249 501 262.50 497.50Q276 494 287.50 486Q299 478 307 464.50Q315 451 315 431Q315 411 306 402Q298 392 284 392Q272 392 262.50 400Q253 408 253 421M106-135Q91-147 72-156Q53-165 34-174Q15-183-2.50-194Q-20-205-31-220Q-38-230-36.50-242Q-35-254-27.50-263.50Q-20-273-8.50-278Q3-283 17-279Q31-275 46-259.50Q61-244 74-212Q80-198 88.50-179Q97-160 106-135Z"  horiz-adv-x="525" vert-adv-y="1000"  />

      
      <glyph glyph-name="uni71" unicode="&#x71;" d="M253 421Q253 429 257.50 436Q262 443 269 448Q264 460 253 460Q239 461 222 447.50Q205 434 185.50 408.50Q166 383 145 345.50Q124 308 103 262Q90 233 81.50 199.50Q73 166 72 135.50Q71 105 78 82Q85 59 103 52Q124 43 148 66.50Q172 90 196 129.50Q220 169 243 216Q266 263 286 301Q301 337 313.50 367.50Q326 398 334 421.50Q342 445 344.50 460Q347 475 343 479Q336 485 349.50 493Q363 501 383.50 502Q404 503 425 493Q446 483 455 453Q461 433 450.50 392Q440 351 419 297.50Q398 244 369.50 182Q341 120 311 58Q345 75 373.50 101.50Q402 128 428 159Q461 198 487.50 238.50Q514 279 531 312Q534 319 540 321.50Q546 324 555 319Q562 315 563.50 308Q565 301 562 295Q538 246 506.50 200Q475 154 437 111Q405 76 369.50 48.50Q334 21 287 7Q276-16 265-38.50Q254-61 244-83Q276-85 308.50-84Q341-83 367-78.50Q393-74 409.50-65.50Q426-57 426-45Q426-31 432.50-30.50Q439-30 445-37.50Q451-45 453.50-57Q456-69 448-79Q438-91 416-102Q394-113 363.50-121Q333-129 296-134Q259-139 219-139Q195-193 182.50-231.50Q170-270 177-283Q181-291 170.50-299.50Q160-308 143.50-308.50Q127-309 109.50-298Q92-287 83-257Q78-241 84-211Q90-181 104-139Q75-140 51-143Q27-146 9-152.50Q-9-159-19.50-170.50Q-30-182-31-200Q-32-213-37-217Q-42-221-47.50-216Q-53-211-57.50-197Q-62-183-60-159Q-57-125-41.50-105.50Q-26-86-0.50-77Q25-68 58-68Q91-68 128-71Q139-43 150.50-14Q162 15 175 45Q146 16 111 5.50Q76-5 32 13Q-8 29-25.50 60Q-43 91-46 127.50Q-49 164-40 203.50Q-31 243-18 276Q6 337 35.50 380.50Q65 424 98 451.50Q131 479 166 491Q201 503 237 502Q249 501 262.50 497.50Q276 494 287.50 486Q299 478 307 464.50Q315 451 315 431Q315 411 306 402Q298 392 284 392Q272 392 262.50 400Q253 408 253 421Z"  horiz-adv-x="531" vert-adv-y="1000"  />

      
      <glyph glyph-name="uni76" unicode="&#x76;" d="M370 451Q377 422 369.50 377Q362 332 343 282Q324 232 294 181.50Q264 131 226.50 90.50Q189 50 145 25Q101 0 53 0Q5 0-19 19.50Q-43 39-49.50 70Q-56 101-49 141.50Q-42 182-28 224.50Q-14 267 3 309.50Q20 352 33 386.50Q46 421 52.50 445.50Q59 470 51 477Q44 483 57.50 491Q71 499 91 500Q111 501 132.50 491Q154 481 163 451Q172 422 160 380Q148 338 127 292.50Q106 247 82.50 202Q59 157 45.50 121Q32 85 34.50 63Q37 41 68 41Q98 41 125.50 71.50Q153 102 176.50 148.50Q200 195 218 249.50Q236 304 248 352.50Q260 401 264 436Q268 471 264 477Q260 483 273 491Q286 499 305 500Q324 501 343 491Q362 481 370 451Z"  horiz-adv-x="424" vert-adv-y="1000"  />

      
      <glyph glyph-name="uni77" unicode="&#x77;" d="M589 451Q596 422 588.50 377Q581 332 562 282Q543 232 513 181.50Q483 131 445.50 90.50Q408 50 364 25Q320 0 272 0Q234 0 211.50 12.50Q189 25 178 45.50Q167 66 166.50 93.50Q166 121 172 153Q153 123 132.50 95.50Q112 68 90.50 47.50Q69 27 47.50 15Q26 3 5 2Q-15 1-29.50 10Q-44 19-53 35.50Q-62 52-65 75.50Q-68 99-65 126Q-61 159-49.50 196Q-38 233-23 270Q-8 307 7.50 341.50Q23 376 34.50 404Q46 432 50.50 451.50Q55 471 48 477Q41 483 54.50 491Q68 499 88 500Q108 501 129.50 491Q151 481 160 451Q169 422 157 380.50Q145 339 123.50 294Q102 249 77.50 204.50Q53 160 36.50 125.50Q20 91 17.50 70.50Q15 50 38 53Q50 54 67.50 71.50Q85 89 105 116.50Q125 144 146 179Q167 214 186.50 251Q206 288 223 323Q240 358 252 386Q266 421 272 445Q278 469 270 477Q263 483 276.50 491Q290 499 310 500Q330 501 351.50 491Q373 481 382 451Q391 422 379 380Q367 338 346 292.50Q325 247 301.50 202Q278 157 264.50 121Q251 85 253.50 63Q256 41 287 41Q317 41 344.50 71.50Q372 102 395.50 148.50Q419 195 437 249.50Q455 304 467 352.50Q479 401 483 436Q487 471 483 477Q479 483 492 491Q505 499 524 500Q543 501 562 491Q581 481 589 451Z"  horiz-adv-x="643" vert-adv-y="1000"  />

      
      <glyph glyph-name="unia8" unicode="&#xa8;" d="M26 595Q26 612 39 624Q52 636 71 636Q90 636 103 624Q116 612 116 595Q116 578 103 566Q90 554 71 554Q52 554 39 566Q26 578 26 595M166 595Q166 612 179 624Q192 636 211 636Q230 636 243 624Q256 612 256 595Q256 578 243 566Q230 554 211 554Q192 554 179 566Q166 578 166 595Z"  horiz-adv-x="282" vert-adv-y="1000"  />

      
      <glyph glyph-name="uni73" unicode="&#x73;" d="M119 23L118 22Q96 11 76 5Q56-1 42-1Q2-1-19.50 19.50Q-41 40-48 68Q-55 96-50 124Q-45 152-31 167Q-11 188 5 195Q21 202 32 200Q43 199 52.50 191Q62 183 62 171Q62 158 52.50 149Q43 140 31 140Q22 140 14 145.50Q6 151 3 160Q-10 145-15 124Q-20 103-17 84Q-14 65-1.50 51.50Q11 38 33 37Q41 37 56 44.50Q71 52 86.50 69.50Q102 87 114 114.50Q126 142 128.50 181Q131 220 120 272Q109 324 78 389Q68 370 55.50 347.50Q43 325 33 305Q28 298 21 297Q14 296 8 298.50Q2 301-0.50 306.50Q-3 312 1 319Q9 336 16 349.50Q23 363 30 375Q37 387 43 399.50Q49 412 56 426Q45 442 39 461Q33 480 33 501Q33 510 36.50 523.50Q40 537 48.50 550.50Q57 564 72 573.50Q87 583 111 583Q136 583 147.50 572Q159 561 160 544Q161 527 153 506.50Q145 486 132 466L129 460Q168 415 191.50 374Q215 333 227 296Q239 259 240.50 227Q242 195 235 167Q268 205 294 242Q320 279 337 312Q340 319 346 321.50Q352 324 361 319Q368 315 369.50 308Q371 301 368 295Q344 246 312.50 203Q281 160 243 117Q216 87 186.50 63Q157 39 120 23L119 23Z"  horiz-adv-x="337" vert-adv-y="1000"  />

      
      <glyph glyph-name="uni7a" unicode="&#x7a;" d="M470 316Q472 323 478.50 325.50Q485 328 492 326Q500 324 503 318Q506 312 502 304Q492 282 477 254.50Q462 227 445 198Q424 162 398 127Q372 92 343.50 64Q315 36 283 18.50Q251 1 218 0Q194 0 176.50 3.50Q159 7 143.50 11.50Q128 16 112.50 19.50Q97 23 76 23Q47 23 26.50 19Q6 15-7 12.50Q-20 10-25.50 11.50Q-31 13-31 24Q-31 37-16.50 61.50Q-2 86 21.50 117.50Q45 149 75.50 186.50Q106 224 138 264Q170 304 201.50 343.50Q233 383 258 420Q234 421 218 428.50Q202 436 190 444.50Q178 453 166 459.50Q154 466 137 466Q111 466 91.50 448.50Q72 431 72 405Q72 374 94.50 354.50Q117 335 149 338Q155 339 151 330Q147 321 136.50 309.50Q126 298 110 288.50Q94 279 75 279Q40 279 15.50 301Q-9 323-9 355Q-9 385 1.50 411Q12 437 30.50 456.50Q49 476 73.50 487Q98 498 126 498Q147 498 162.50 492.50Q178 487 195.50 480.50Q213 474 234 468.50Q255 463 287 463Q318 463 338 464.50Q358 466 372.50 468.50Q387 471 397.50 472.50Q408 474 421 474Q433 474 433 464Q433 459 427 452.50Q421 446 406.50 431Q392 416 368 390.50Q344 365 308.50 323Q273 281 223.50 219.50Q174 158 110 72Q121 72 133 66.50Q145 61 158 54.50Q171 48 185 42Q199 36 216 36Q247 35 278.50 55Q310 75 339 106.50Q368 138 393.50 176.50Q419 215 439 252Q449 270 457 285.50Q465 301 470 316Z"  horiz-adv-x="469" vert-adv-y="1000"  />

      
      <glyph glyph-name="uni72" unicode="&#x72;" d="M29 295Q26 289 19.50 287Q13 285 7.50 287Q2 289-1.50 294.50Q-5 300-2 308Q1 317 9 335.50Q17 354 25 374.50Q33 395 41 414.50Q49 434 52 447Q29 458 12.50 482Q-4 506-4 530Q-4 561 12 583Q28 605 60 605Q80 605 94.50 588.50Q109 572 110 549Q110 536 108.50 513Q107 490 103 475Q108 471 116.50 470Q125 469 135 469Q157 469 169.50 474Q182 479 191 484.50Q200 490 209 495Q218 500 233 500Q253 500 273 490Q293 480 302 451Q311 422 299 380.50Q287 339 265.50 294Q244 249 219.50 205Q195 161 178.50 126.50Q162 92 159.50 71.50Q157 51 180 53Q189 54 205 69Q221 84 240 107.50Q259 131 279 160Q299 189 317 218Q335 247 349 273Q363 299 369 316Q372 324 379 326Q386 328 392 326Q398 324 401.50 318Q405 312 401 305Q393 288 378 258.50Q363 229 342.50 195.50Q322 162 298 128Q274 94 248.50 66Q223 38 197 20Q171 2 147 2Q127 1 112.50 10Q98 19 89 35.50Q80 52 77 75.50Q74 99 77 126Q81 165 96 209Q111 253 129 295.50Q147 338 164 375Q181 412 189 438Q168 430 141.50 428.50Q115 427 89 434Q86 427 78.50 408.50Q71 390 62 368.50Q53 347 44 326.50Q35 306 29 295Z"  horiz-adv-x="368" vert-adv-y="1000"  />

      
      <glyph glyph-name="uni66" unicode="&#x66;" d="M97 243Q170 236 214 264Q227 272 237.50 284.50Q248 297 253 313Q255 320 262.50 322Q270 324 276 320Q281 317 284 310.50Q287 304 284 296Q276 279 265 267.50Q254 256 240 246Q212 227 178 219Q144 211 114 212Q114 177 103.50 123Q93 69 74 9Q55-51 28.50-111Q2-171-29-216.50Q-60-262-95.50-287.50Q-131-313-167-305Q-196-299-201-265Q-206-231-194.50-178Q-183-125-158-56.50Q-133 12-101 88Q-69 164-33.50 244Q2 324 35 400Q68 475 96.50 541.50Q125 608 146 659Q167 710 177.50 743.50Q188 777 184 787Q180 796 194 804Q208 812 228 813Q248 814 267.50 802.50Q287 791 294 761Q300 735 293 696.50Q286 658 271 613.50Q256 569 235 521.50Q214 474 193 430Q172 386 153 347.50Q134 309 122 284L97 243M-131-265Q-119-274-97.50-251.50Q-76-229-50.50-187Q-25-145 0-90Q25-35 44 20Q63 75 72.50 124.50Q82 174 76 205Q55 160 29 109Q3 58-23 6.50Q-49-45-72-92.50Q-95-140-111-177Q-127-214-133-238Q-139-262-131-265Z"  horiz-adv-x="253" vert-adv-y="1000"  />

      
      <glyph glyph-name="uni6f" unicode="&#x6f;" d="M318 430Q318 414 312 407Q304 392 287 392Q275 392 265.50 400Q256 408 256 421Q256 429 260.50 436Q265 443 272 448Q264 462 253.50 462Q243 462 231 453.50Q219 445 206.50 430.50Q194 416 182 401Q161 374 141.50 338.50Q122 303 107 265.50Q92 228 83 191.50Q74 155 73.50 125Q73 95 82 75.50Q91 56 112 52Q127 49 145.50 65.50Q164 82 182.50 108Q201 134 218.50 164.50Q236 195 249 221Q228 230 220 250.50Q212 271 215 292Q218 313 231 329Q244 345 264 345Q271 345 282 344Q293 343 301 333.50Q309 324 310 303Q311 282 299 242Q339 243 363 253Q387 263 400.50 275Q414 287 418.50 298.50Q423 310 425 313Q428 320 434.50 321.50Q441 323 447 320Q453 317 456 310.50Q459 304 456 296Q448 277 431 261Q414 245 391.50 234Q369 223 341.50 217Q314 211 286 212Q272 181 250.50 143Q229 105 201 72.50Q173 40 139.50 19Q106-2 68 1Q18 6-10.50 43Q-39 80-41 133Q-42 173-33 216.50Q-24 260-6 302Q12 344 38 381.50Q64 419 96.50 447Q129 475 167.50 490Q206 505 248 503Q267 502 279.50 494.50Q292 487 300 476.50Q308 466 312 453.50Q316 441 318 430Z"  horiz-adv-x="425" vert-adv-y="1000"  />

      
      <glyph glyph-name="uni3a" unicode="&#x3a;" d="M23 41Q23 58 36 70Q49 82 68 82Q87 82 100 70Q113 58 113 41Q113 24 100 12Q87 0 68 0Q49 0 36 12Q23 24 23 41M117 381Q117 398 130 410Q143 422 162 422Q181 422 194 410Q207 398 207 381Q207 364 194 352Q181 340 162 340Q143 340 130 352Q117 364 117 381Z"  horiz-adv-x="255" vert-adv-y="1000"  />

      
      <glyph glyph-name="uni2e" unicode="&#x2e;" d="M45 10Q45 3 31.50 3Q18 3 2 9.50Q-14 16-27.50 30Q-41 44-41 66Q-41 72-36 82Q-31 92-24.50 103Q-18 114-13 123.50Q-8 133-8 138Q-8 144 5 144Q18 144 33.50 137Q49 130 62 116Q75 102 75 81Q75 76 70.50 66.50Q66 57 60 46.50Q54 36 49.50 26Q45 16 45 10Z"  horiz-adv-x="206" vert-adv-y="1000"  />

      
      <glyph glyph-name="uni60" unicode="&#x60;" d="M99 734Q96 722 104.50 693.50Q113 665 122 633.50Q131 602 135.50 576Q140 550 131 544Q117 535 96 547Q75 559 55.50 582Q36 605 23 635.50Q10 666 11 694Q11 711 25.50 722Q40 733 57 738Q74 743 87 742Q100 741 99 734Z"  horiz-adv-x="162" vert-adv-y="1000"  />

      
      <glyph glyph-name="unib4" unicode="&#xb4;" d="M63 734Q61 741 74.50 742Q88 743 105 738Q122 733 136.50 722Q151 711 151 694Q152 666 139 635.50Q126 605 106.50 582Q87 559 66 547Q45 535 31 544Q22 550 26.50 576Q31 602 40 633.50Q49 665 57.50 693.50Q66 722 63 734Z"  horiz-adv-x="162" vert-adv-y="1000"  />

      
      <glyph glyph-name="uni2c" unicode="&#x2c;" d="M34 114Q31 120 43.50 124.50Q56 129 73 128.50Q90 128 105 121Q120 114 123 97Q129 59 117.50 23.50Q106-12 86.50-38Q67-64 43.50-76Q20-88 0-78Q-10-73 1.50-56.50Q13-40 26.50-14.50Q40 11 46.50 43.50Q53 76 34 114Z"  horiz-adv-x="255" vert-adv-y="1000"  />

      
      <glyph glyph-name="uni3b" unicode="&#x3b;" d="M117 381Q117 398 130 410Q143 422 162 422Q181 422 194 410Q207 398 207 381Q207 364 194 352Q181 340 162 340Q143 340 130 352Q117 364 117 381M34 114Q31 120 43.50 124.50Q56 129 73 128.50Q90 128 105 121Q120 114 123 97Q129 59 117.50 23.50Q106-12 86.50-38Q67-64 43.50-76Q20-88 0-78Q-10-73 1.50-56.50Q13-40 26.50-14.50Q40 11 46.50 43.50Q53 76 34 114Z"  horiz-adv-x="255" vert-adv-y="1000"  />

      
      <glyph glyph-name="uni27" unicode="&#x27;" d="M73 627Q71 634 84.50 635Q98 636 115 631Q132 626 146.50 615Q161 604 161 587Q162 559 147 519Q132 479 111 444Q90 409 67.50 387.50Q45 366 31 375Q25 379 26 397Q27 415 32.50 440.50Q38 466 45.50 495.50Q53 525 59.50 551.50Q66 578 70.50 598.50Q75 619 73 627Z"  horiz-adv-x="171" vert-adv-y="1000"  />

      
      <glyph glyph-name="uni22" unicode="&#x22;" d="M82 627Q80 634 93.50 635Q107 636 124 631Q141 626 155.50 615Q170 604 170 587Q171 559 156 519Q141 479 120 444Q99 409 76.50 387.50Q54 366 40 375Q34 379 35 397Q36 415 41.50 440.50Q47 466 54.50 495.50Q62 525 68.50 551.50Q75 578 79.50 598.50Q84 619 82 627M282 627Q280 634 293.50 635Q307 636 324 631Q341 626 355.50 615Q370 604 370 587Q371 559 356 519Q341 479 320 444Q299 409 276.50 387.50Q254 366 240 375Q234 379 235 397Q236 415 241.50 440.50Q247 466 254.50 495.50Q262 525 268.50 551.50Q275 578 279.50 598.50Q284 619 282 627Z"  horiz-adv-x="388" vert-adv-y="1000"  />

      
      <glyph glyph-name="uni21" unicode="&#x21;" d="M82 279Q74 303 87 348Q100 393 123 446.50Q146 500 174 557Q202 614 224.50 662.50Q247 711 259 745Q271 779 263 787Q256 793 269.50 801Q283 809 303.50 810Q324 811 345 801Q366 791 375 761Q383 735 369 691Q355 647 330.50 595.50Q306 544 275.50 490Q245 436 220.50 388.50Q196 341 182 304.50Q168 268 176 253Q180 245 169.50 236.50Q159 228 142.50 227.50Q126 227 108.50 238Q91 249 82 279M89 10Q89 3 75.50 3Q62 3 46 9.50Q30 16 16.50 30Q3 44 3 66Q3 72 8 82Q13 92 19.50 103Q26 114 31 123.50Q36 133 36 138Q36 144 49 144Q62 144 77.50 137Q93 130 106 116Q119 102 119 81Q119 76 114.50 66.50Q110 57 104 46.50Q98 36 93.50 26Q89 16 89 10Z"  horiz-adv-x="387" vert-adv-y="1000"  />

      
      <glyph glyph-name="uni78" unicode="&#x78;" d="M-21-1Q-24-1-26.50-0.50Q-29 0-32 0Q-33 1-34 1Q-42 5-47 11.50Q-52 18-52 28Q-52 41-42.50 50Q-33 59-21 59Q-5 59 3 44Q21 54 42.50 73.50Q64 93 88 118.50Q112 144 138.50 174Q165 204 192 236Q185 278 179 318.50Q173 359 167 390Q161 421 154 440Q147 459 137 459Q130 459 119.50 448Q109 437 97 420.50Q85 404 73.50 384.50Q62 365 53 348.50Q44 332 38 321Q32 310 32 311Q27 302 20 298.50Q13 295 7.50 296Q2 297-1 302.50Q-4 308 1 317Q31 375 52.50 412Q74 449 92 470Q110 491 128 499Q146 507 168 507Q195 507 216 495.50Q237 484 253 464.50Q269 445 280 418Q291 391 299 361Q328 394 356 423Q384 452 409 474Q434 496 455.50 509Q477 522 494 523Q500 525 505 525Q516 525 525 516Q534 507 534 494Q534 481 525 473Q516 465 505 465Q496 465 489 469L488 469Q474 469 455.50 456Q437 443 414 421Q391 399 365 369.50Q339 340 311 307Q319 261 323 215.50Q327 170 330 133.50Q333 97 337.50 74.50Q342 52 351 52Q357 52 369 62Q381 72 396 89.50Q411 107 428 129Q445 151 462 175Q478 198 492 221.50Q506 245 516 264Q526 283 532.50 296.50Q539 310 540 313Q543 323 550 325.50Q557 328 564 326Q579 321 573 305Q562 282 545.50 250.50Q529 219 508 185Q487 151 463 118Q439 85 414 59Q389 33 364.50 17Q340 1 319 1Q295 1 277 16Q259 31 245 55.50Q231 80 220.50 112Q210 144 203 180Q173 145 143 114Q113 83 85 58.50Q57 34 32 18.50Q7 3-14 0Q-16-1-21-1Z"  horiz-adv-x="540" vert-adv-y="1000"  />

      
      <glyph glyph-name="uni41" unicode="&#x41;" d="M956 320Q975 315 970 296Q964 277 946 268Q926 256 887 257Q848 258 784 272L783 272Q749 187 719 103.50Q689 20 669-58Q663-82 658.50-117Q654-152 654.50-190Q655-228 661-264.50Q667-301 682-329Q697-357 721.50-372Q746-387 783-381Q793-380 799-383.50Q805-387 806.50-392.50Q808-398 804.50-404Q801-410 792-413Q739-430 687-421Q635-412 594.50-382Q554-352 529.50-304Q505-256 507-195Q507-129 531-34Q553 47 584.50 133Q616 219 651 306Q610 317 569 329.50Q528 342 488 354Q456 298 421.50 246Q387 194 349 149Q236 19 110 18L108 18Q7 18-48 91Q-72 123-82.50 164.50Q-93 206-89 254Q-85 306-64.50 355.50Q-44 405-10 444Q26 486 76 510Q126 536 190 538Q259 541 299 510Q334 482 339 437L339 434Q372 426 403 419Q434 412 470 401Q512 473 554.50 546Q597 619 643 673Q666 700 687.50 720Q709 740 732 754Q784 786 838 786Q881 786 901 756Q917 731 915.50 688.50Q914 646 894 577Q877 519 851.50 451.50Q826 384 797 310Q824 305 845 301.50Q866 298 883 297Q906 295 915.50 297.50Q925 300 929 302Q930 302 931 303L931 304Q934 312 941 317Q948 322 956 320M147 64Q187 64 227.50 91Q268 118 307 161.50Q346 205 382 258Q418 311 449 364Q418 373 390 380Q362 387 333 394Q328 379 321 368Q297 333 260 322Q225 311 206.50 317Q188 323 181 330Q163 347 172 377Q178 397 197.50 413.50Q217 430 244 438Q263 444 297 440Q293 457 278.50 474.50Q264 492 238 493Q194 494 160.50 472Q127 450 104 415.50Q81 381 68 340.50Q55 300 51 264Q48 235 48.50 200Q49 165 58 135Q67 105 88 84.50Q109 64 147 64M508 390Q548 379 587.50 367Q627 355 667 344Q695 416 719.50 481Q744 546 759 600Q766 624 772 646Q778 668 781 684.50Q784 701 782.50 712Q781 723 772 725Q758 729 738.50 714.50Q719 700 696 674Q673 648 647.50 612.50Q622 577 597 538.50Q572 500 549 461.50Q526 423 508 390Z"  horiz-adv-x="927" vert-adv-y="1000"  />

      
      <glyph glyph-name="uni02DD" unicode="&#x02DD;" d="M63 734Q61 741 74.50 742Q88 743 105 738Q122 733 136.50 722Q151 711 151 694Q152 666 139 635.50Q126 605 106.50 582Q87 559 66 547Q45 535 31 544Q22 550 26.50 576Q31 602 40 633.50Q49 665 57.50 693.50Q66 722 63 734M225 734Q223 741 236.50 742Q250 743 267 738Q284 733 298.50 722Q313 711 313 694Q314 666 301 635.50Q288 605 268.50 582Q249 559 228 547Q207 535 193 544Q184 550 188.50 576Q193 602 202 633.50Q211 665 219.50 693.50Q228 722 225 734Z"  horiz-adv-x="324" vert-adv-y="1000"  />

      
      <glyph glyph-name="unie0" unicode="&#xe0;" d="M253 421Q253 429 257.50 436Q262 443 269 448Q264 460 253 460Q239 461 222 447.50Q205 434 185.50 408.50Q166 383 145 345.50Q124 308 103 262Q90 233 81.50 199.50Q73 166 72 135.50Q71 105 78 82Q85 59 103 52Q117 46 132.50 55Q148 64 163.50 83Q179 102 195.50 129Q212 156 227.50 185.50Q243 215 257.50 244.50Q272 274 285 299Q299 332 312.50 361.50Q326 391 335 414.50Q344 438 347 454.50Q350 471 344 477Q337 483 350.50 491Q364 499 384 500Q404 501 425.50 491Q447 481 456 451Q465 422 453 380.50Q441 339 419.50 294Q398 249 373.50 205Q349 161 332.50 126.50Q316 92 313.50 71.50Q311 51 334 53Q343 54 359 69Q375 84 394 107.50Q413 131 433.50 160Q454 189 471.50 218Q489 247 503 273Q517 299 523 316Q526 324 533 326Q540 328 546 326Q552 324 555.50 318Q559 312 555 305Q547 288 532 258.50Q517 229 496.50 195.50Q476 162 452 128Q428 94 402.50 66Q377 38 351 20Q325 2 301 2Q263 0 244 33Q225 66 230 117Q211 86 190 60.50Q169 35 144.50 20Q120 5 92.50 2Q65-1 32 13Q-8 29-25.50 60Q-43 91-46 127.50Q-49 164-40 203.50Q-31 243-18 276Q6 337 35.50 380.50Q65 424 98 451.50Q131 479 166 491Q201 503 237 502Q249 501 262.50 497.50Q276 494 287.50 486Q299 478 307 464.50Q315 451 315 431Q315 409 305 401Q297 392 284 392Q272 392 262.50 400Q253 408 253 421M278 734Q275 722 283.50 693.50Q292 665 301 633.50Q310 602 314.50 576Q319 550 310 544Q296 535 275 547Q254 559 234.50 582Q215 605 202 635.50Q189 666 190 694Q190 711 204.50 722Q219 733 236 738Q253 743 266 742Q279 741 278 734Z"  horiz-adv-x="523" vert-adv-y="1000"  />

      
      <glyph glyph-name="unie1" unicode="&#xe1;" d="M253 421Q253 408 262.50 400Q272 392 284 392Q297 392 305 401Q315 409 315 431Q315 451 307 464.50Q299 478 287.50 486Q276 494 262.50 497.50Q249 501 237 502Q201 503 166 491Q131 479 98 451.50Q65 424 35.50 380.50Q6 337-18 276Q-31 243-40 203.50Q-49 164-46 127.50Q-43 91-25.50 60Q-8 29 32 13Q65-1 92.50 2Q120 5 144.50 20Q169 35 190 60.50Q211 86 230 117Q225 66 244 33Q263 0 301 2Q325 2 351 20Q377 38 402.50 66Q428 94 452 128Q476 162 496.50 195.50Q517 229 532 258.50Q547 288 555 305Q559 312 555.50 318Q552 324 546 326Q540 328 533 326Q526 324 523 316Q517 299 503 273Q489 247 471.50 218Q454 189 433.50 160Q413 131 394 107.50Q375 84 359 69Q343 54 334 53Q311 51 313.50 71.50Q316 92 332.50 126.50Q349 161 373.50 205Q398 249 419.50 294Q441 339 453 380.50Q465 422 456 451Q447 481 425.50 491Q404 501 384 500Q364 499 350.50 491Q337 483 344 477Q350 471 347 454.50Q344 438 335 414.50Q326 391 312.50 361.50Q299 332 285 299Q272 274 257.50 244.50Q243 215 227.50 185.50Q212 156 195.50 129Q179 102 163.50 83Q148 64 132.50 55Q117 46 103 52Q85 59 78 82Q71 105 72 135.50Q73 166 81.50 199.50Q90 233 103 262Q124 308 145 345.50Q166 383 185.50 408.50Q205 434 222 447.50Q239 461 253 460Q264 460 269 448Q262 443 257.50 436Q253 429 253 421M244 734Q242 741 255.50 742Q269 743 286 738Q303 733 317.50 722Q332 711 332 694Q333 666 320 635.50Q307 605 287.50 582Q268 559 247 547Q226 535 212 544Q203 550 207.50 576Q212 602 221 633.50Q230 665 238.50 693.50Q247 722 244 734Z"  horiz-adv-x="523" vert-adv-y="1000"  />

      
      <glyph glyph-name="unie8" unicode="&#xe8;" d="M396 325Q408 317 402 303Q385 267 361.50 227.50Q338 188 308.50 150.50Q279 113 246 81.50Q213 50 177.50 30Q142 10 105 4Q68-2 32 13Q-8 29-25.50 59.50Q-43 90-46 127Q-49 164-40 203.50Q-31 243-18 276Q6 337 35.50 379.50Q65 422 98 449Q131 476 166 489Q201 502 237 502Q274 502 291.50 484Q309 466 309 437Q309 408 293 373Q277 338 247.50 304.50Q218 271 176 243.50Q134 216 82 202Q75 176 72 150.50Q69 125 71 104Q73 83 80.50 69Q88 55 103 52Q125 48 150.50 58.50Q176 69 202.50 90Q229 111 254.50 139Q280 167 302.50 198Q325 229 342.50 259.50Q360 290 370 316Q373 324 380.50 327Q388 330 396 325M103 262Q98 251 95 242Q155 263 193.50 299.50Q232 336 251 371.50Q270 407 270.50 433Q271 459 253 460Q226 461 185 408Q144 355 103 262M202 734Q199 722 207.50 693.50Q216 665 225 633.50Q234 602 238.50 576Q243 550 234 544Q220 535 199 547Q178 559 158.50 582Q139 605 126 635.50Q113 666 114 694Q114 711 128.50 722Q143 733 160 738Q177 743 190 742Q203 741 202 734Z"  horiz-adv-x="370" vert-adv-y="1000"  />

      
      <glyph glyph-name="unie9" unicode="&#xe9;" d="M396 325Q388 330 380.50 327Q373 324 370 316Q360 290 342.50 259.50Q325 229 302.50 198Q280 167 254.50 139Q229 111 202.50 90Q176 69 150.50 58.50Q125 48 103 52Q88 55 80.50 69Q73 83 71 104Q69 125 72 150.50Q75 176 82 202Q134 216 176 243.50Q218 271 247.50 304.50Q277 338 293 373Q309 408 309 437Q309 466 291.50 484Q274 502 237 502Q201 502 166 489Q131 476 98 449Q65 422 35.50 379.50Q6 337-18 276Q-31 243-40 203.50Q-49 164-46 127Q-43 90-25.50 59.50Q-8 29 32 13Q68-2 105 4Q142 10 177.50 30Q213 50 246 81.50Q279 113 308.50 150.50Q338 188 361.50 227.50Q385 267 402 303Q408 317 396 325M103 262Q144 355 185 408Q226 461 253 460Q271 459 270.50 433Q270 407 251 371.50Q232 336 193.50 299.50Q155 263 95 242Q98 251 103 262M168 734Q166 741 179.50 742Q193 743 210 738Q227 733 241.50 722Q256 711 256 694Q257 666 244 635.50Q231 605 211.50 582Q192 559 171 547Q150 535 136 544Q127 550 131.50 576Q136 602 145 633.50Q154 665 162.50 693.50Q171 722 168 734Z"  horiz-adv-x="370" vert-adv-y="1000"  />

      
      <glyph glyph-name="unieb" unicode="&#xeb;" d="M396 325Q408 317 402 303Q385 267 361.50 227.50Q338 188 308.50 150.50Q279 113 246 81.50Q213 50 177.50 30Q142 10 105 4Q68-2 32 13Q-8 29-25.50 59.50Q-43 90-46 127Q-49 164-40 203.50Q-31 243-18 276Q6 337 35.50 379.50Q65 422 98 449Q131 476 166 489Q201 502 237 502Q274 502 291.50 484Q309 466 309 437Q309 408 293 373Q277 338 247.50 304.50Q218 271 176 243.50Q134 216 82 202Q75 176 72 150.50Q69 125 71 104Q73 83 80.50 69Q88 55 103 52Q125 48 150.50 58.50Q176 69 202.50 90Q229 111 254.50 139Q280 167 302.50 198Q325 229 342.50 259.50Q360 290 370 316Q373 324 380.50 327Q388 330 396 325M103 262Q98 251 95 242Q155 263 193.50 299.50Q232 336 251 371.50Q270 407 270.50 433Q271 459 253 460Q226 461 185 408Q144 355 103 262M70 595Q70 612 83 624Q96 636 115 636Q134 636 147 624Q160 612 160 595Q160 578 147 566Q134 554 115 554Q96 554 83 566Q70 578 70 595M210 595Q210 612 223 624Q236 636 255 636Q274 636 287 624Q300 612 300 595Q300 578 287 566Q274 554 255 554Q236 554 223 566Q210 578 210 595Z"  horiz-adv-x="370" vert-adv-y="1000"  />

      
      <glyph glyph-name="unif2" unicode="&#xf2;" d="M318 430Q318 414 312 407Q304 392 287 392Q275 392 265.50 400Q256 408 256 421Q256 429 260.50 436Q265 443 272 448Q264 462 253.50 462Q243 462 231 453.50Q219 445 206.50 430.50Q194 416 182 401Q161 374 141.50 338.50Q122 303 107 265.50Q92 228 83 191.50Q74 155 73.50 125Q73 95 82 75.50Q91 56 112 52Q127 49 145.50 65.50Q164 82 182.50 108Q201 134 218.50 164.50Q236 195 249 221Q228 230 220 250.50Q212 271 215 292Q218 313 231 329Q244 345 264 345Q271 345 282 344Q293 343 301 333.50Q309 324 310 303Q311 282 299 242Q339 243 363 253Q387 263 400.50 275Q414 287 418.50 298.50Q423 310 425 313Q428 320 434.50 321.50Q441 323 447 320Q453 317 456 310.50Q459 304 456 296Q448 277 431 261Q414 245 391.50 234Q369 223 341.50 217Q314 211 286 212Q272 181 250.50 143Q229 105 201 72.50Q173 40 139.50 19Q106-2 68 1Q18 6-10.50 43Q-39 80-41 133Q-42 173-33 216.50Q-24 260-6 302Q12 344 38 381.50Q64 419 96.50 447Q129 475 167.50 490Q206 505 248 503Q267 502 279.50 494.50Q292 487 300 476.50Q308 466 312 453.50Q316 441 318 430M229 734Q226 722 234.50 693.50Q243 665 252 633.50Q261 602 265.50 576Q270 550 261 544Q247 535 226 547Q205 559 185.50 582Q166 605 153 635.50Q140 666 141 694Q141 711 155.50 722Q170 733 187 738Q204 743 217 742Q230 741 229 734Z"  horiz-adv-x="425" vert-adv-y="1000"  />

      
      <glyph glyph-name="unif3" unicode="&#xf3;" d="M318 430Q316 441 312 453.50Q308 466 300 476.50Q292 487 279.50 494.50Q267 502 248 503Q206 505 167.50 490Q129 475 96.50 447Q64 419 38 381.50Q12 344-6 302Q-24 260-33 216.50Q-42 173-41 133Q-39 80-10.50 43Q18 6 68 1Q106-2 139.50 19Q173 40 201 72.50Q229 105 250.50 143Q272 181 286 212Q314 211 341.50 217Q369 223 391.50 234Q414 245 431 261Q448 277 456 296Q459 304 456 310.50Q453 317 447 320Q441 323 434.50 321.50Q428 320 425 313Q423 310 418.50 298.50Q414 287 400.50 275Q387 263 363 253Q339 243 299 242Q311 282 310 303Q309 324 301 333.50Q293 343 282 344Q271 345 264 345Q244 345 231 329Q218 313 215 292Q212 271 220 250.50Q228 230 249 221Q236 195 218.50 164.50Q201 134 182.50 108Q164 82 145.50 65.50Q127 49 112 52Q91 56 82 75.50Q73 95 73.50 125Q74 155 83 191.50Q92 228 107 265.50Q122 303 141.50 338.50Q161 374 182 401Q194 416 206.50 430.50Q219 445 231 453.50Q243 462 253.50 462Q264 462 272 448Q265 443 260.50 436Q256 429 256 421Q256 408 265.50 400Q275 392 287 392Q304 392 312 407Q318 414 318 430M195 734Q193 741 206.50 742Q220 743 237 738Q254 733 268.50 722Q283 711 283 694Q284 666 271 635.50Q258 605 238.50 582Q219 559 198 547Q177 535 163 544Q154 550 158.50 576Q163 602 172 633.50Q181 665 189.50 693.50Q198 722 195 734Z"  horiz-adv-x="425" vert-adv-y="1000"  />

      
      <glyph glyph-name="unif6" unicode="&#xf6;" d="M318 430Q318 414 312 407Q304 392 287 392Q275 392 265.50 400Q256 408 256 421Q256 429 260.50 436Q265 443 272 448Q264 462 253.50 462Q243 462 231 453.50Q219 445 206.50 430.50Q194 416 182 401Q161 374 141.50 338.50Q122 303 107 265.50Q92 228 83 191.50Q74 155 73.50 125Q73 95 82 75.50Q91 56 112 52Q127 49 145.50 65.50Q164 82 182.50 108Q201 134 218.50 164.50Q236 195 249 221Q228 230 220 250.50Q212 271 215 292Q218 313 231 329Q244 345 264 345Q271 345 282 344Q293 343 301 333.50Q309 324 310 303Q311 282 299 242Q339 243 363 253Q387 263 400.50 275Q414 287 418.50 298.50Q423 310 425 313Q428 320 434.50 321.50Q441 323 447 320Q453 317 456 310.50Q459 304 456 296Q448 277 431 261Q414 245 391.50 234Q369 223 341.50 217Q314 211 286 212Q272 181 250.50 143Q229 105 201 72.50Q173 40 139.50 19Q106-2 68 1Q18 6-10.50 43Q-39 80-41 133Q-42 173-33 216.50Q-24 260-6 302Q12 344 38 381.50Q64 419 96.50 447Q129 475 167.50 490Q206 505 248 503Q267 502 279.50 494.50Q292 487 300 476.50Q308 466 312 453.50Q316 441 318 430M97 595Q97 612 110 624Q123 636 142 636Q161 636 174 624Q187 612 187 595Q187 578 174 566Q161 554 142 554Q123 554 110 566Q97 578 97 595M237 595Q237 612 250 624Q263 636 282 636Q301 636 314 624Q327 612 327 595Q327 578 314 566Q301 554 282 554Q263 554 250 566Q237 578 237 595Z"  horiz-adv-x="425" vert-adv-y="1000"  />

      
      <glyph glyph-name="unif9" unicode="&#xf9;" d="M492 305Q484 288 469 258.50Q454 229 433.50 195.50Q413 162 389 128Q365 94 339.50 66Q314 38 288 20Q262 2 238 2Q218 1 203.50 10Q189 19 180 35.50Q171 52 168 75.50Q165 99 168 126Q168 131 169 135.50Q170 140 171 145Q152 117 131.50 91.50Q111 66 90 46Q69 26 48 14Q27 2 8 2Q-12 1-26.50 10Q-41 19-50 35.50Q-59 52-62 75.50Q-65 99-62 126Q-58 159-46.50 196Q-35 233-20 270Q-5 307 10.50 341.50Q26 376 37.50 404Q49 432 53.50 451Q58 470 51 477Q44 483 57.50 491Q71 499 91 500Q111 501 132.50 491Q154 481 163 451Q172 422 160 380.50Q148 339 126.50 294Q105 249 80.50 205Q56 161 39.50 126.50Q23 92 20.50 71.50Q18 51 41 53Q53 54 76 78Q99 102 124.50 137.50Q150 173 174.50 212.50Q199 252 215 283Q230 318 244.50 350Q259 382 269.50 408.50Q280 435 284 453Q288 471 281 477Q274 483 287.50 491Q301 499 321 500Q341 501 362.50 491Q384 481 393 451Q402 422 390 380.50Q378 339 356.50 294Q335 249 310.50 205Q286 161 269.50 126.50Q253 92 250.50 71.50Q248 51 271 53Q280 54 296 69Q312 84 331 107.50Q350 131 370 160Q390 189 408 218Q426 247 440 273Q454 299 460 316Q463 324 470 326Q477 328 483 326Q489 324 492.50 318Q496 312 492 305M216 734Q213 722 221.50 693.50Q230 665 239 633.50Q248 602 252.50 576Q257 550 248 544Q234 535 213 547Q192 559 172.50 582Q153 605 140 635.50Q127 666 128 694Q128 711 142.50 722Q157 733 174 738Q191 743 204 742Q217 741 216 734Z"  horiz-adv-x="459" vert-adv-y="1000"  />

      
      <glyph glyph-name="unifa" unicode="&#xfa;" d="M492 305Q496 312 492.50 318Q489 324 483 326Q477 328 470 326Q463 324 460 316Q454 299 440 273Q426 247 408 218Q390 189 370 160Q350 131 331 107.50Q312 84 296 69Q280 54 271 53Q248 51 250.50 71.50Q253 92 269.50 126.50Q286 161 310.50 205Q335 249 356.50 294Q378 339 390 380.50Q402 422 393 451Q384 481 362.50 491Q341 501 321 500Q301 499 287.50 491Q274 483 281 477Q288 471 284 453Q280 435 269.50 408.50Q259 382 244.50 350Q230 318 215 283Q199 252 174.50 212.50Q150 173 124.50 137.50Q99 102 76 78Q53 54 41 53Q18 51 20.50 71.50Q23 92 39.50 126.50Q56 161 80.50 205Q105 249 126.50 294Q148 339 160 380.50Q172 422 163 451Q154 481 132.50 491Q111 501 91 500Q71 499 57.50 491Q44 483 51 477Q58 470 53.50 451Q49 432 37.50 404Q26 376 10.50 341.50Q-5 307-20 270Q-35 233-46.50 196Q-58 159-62 126Q-65 99-62 75.50Q-59 52-50 35.50Q-41 19-26.50 10Q-12 1 8 2Q27 2 48 14Q69 26 90 46Q111 66 131.50 91.50Q152 117 171 145Q170 140 169 135.50Q168 131 168 126Q165 99 168 75.50Q171 52 180 35.50Q189 19 203.50 10Q218 1 238 2Q262 2 288 20Q314 38 339.50 66Q365 94 389 128Q413 162 433.50 195.50Q454 229 469 258.50Q484 288 492 305M242 734Q240 741 253.50 742Q267 743 284 738Q301 733 315.50 722Q330 711 330 694Q331 666 318 635.50Q305 605 285.50 582Q266 559 245 547Q224 535 210 544Q201 550 205.50 576Q210 602 219 633.50Q228 665 236.50 693.50Q245 722 242 734Z"  horiz-adv-x="459" vert-adv-y="1000"  />

      
      <glyph glyph-name="unifc" unicode="&#xfc;" d="M492 305Q484 288 469 258.50Q454 229 433.50 195.50Q413 162 389 128Q365 94 339.50 66Q314 38 288 20Q262 2 238 2Q218 1 203.50 10Q189 19 180 35.50Q171 52 168 75.50Q165 99 168 126Q168 131 169 135.50Q170 140 171 145Q152 117 131.50 91.50Q111 66 90 46Q69 26 48 14Q27 2 8 2Q-12 1-26.50 10Q-41 19-50 35.50Q-59 52-62 75.50Q-65 99-62 126Q-58 159-46.50 196Q-35 233-20 270Q-5 307 10.50 341.50Q26 376 37.50 404Q49 432 53.50 451Q58 470 51 477Q44 483 57.50 491Q71 499 91 500Q111 501 132.50 491Q154 481 163 451Q172 422 160 380.50Q148 339 126.50 294Q105 249 80.50 205Q56 161 39.50 126.50Q23 92 20.50 71.50Q18 51 41 53Q53 54 76 78Q99 102 124.50 137.50Q150 173 174.50 212.50Q199 252 215 283Q230 318 244.50 350Q259 382 269.50 408.50Q280 435 284 453Q288 471 281 477Q274 483 287.50 491Q301 499 321 500Q341 501 362.50 491Q384 481 393 451Q402 422 390 380.50Q378 339 356.50 294Q335 249 310.50 205Q286 161 269.50 126.50Q253 92 250.50 71.50Q248 51 271 53Q280 54 296 69Q312 84 331 107.50Q350 131 370 160Q390 189 408 218Q426 247 440 273Q454 299 460 316Q463 324 470 326Q477 328 483 326Q489 324 492.50 318Q496 312 492 305M114 595Q114 612 127 624Q140 636 159 636Q178 636 191 624Q204 612 204 595Q204 578 191 566Q178 554 159 554Q140 554 127 566Q114 578 114 595M254 595Q254 612 267 624Q280 636 299 636Q318 636 331 624Q344 612 344 595Q344 578 331 566Q318 554 299 554Q280 554 267 566Q254 578 254 595Z"  horiz-adv-x="459" vert-adv-y="1000"  />

      
      <glyph glyph-name="uniff" unicode="&#xff;" d="M-138-244Q-139-235-135.50-222.50Q-132-210-118-196Q-102-180-79.50-167Q-57-154-32.50-142Q-8-130 15.50-117.50Q39-105 56-90Q68-53 87.50-7.50Q107 38 129 89Q99 52 68 27.50Q37 3 8 2Q-12 1-26.50 10Q-41 19-50 35.50Q-59 52-62 75.50Q-65 99-62 126Q-58 159-46.50 196Q-35 233-20 270Q-5 307 10.50 341.50Q26 376 37.50 404Q49 432 53.50 451.50Q58 471 51 477Q44 483 57.50 491Q71 499 91 500Q111 501 132.50 491Q154 481 163 451Q172 422 160 380.50Q148 339 126.50 294Q105 249 80.50 205Q56 161 39.50 126.50Q23 92 20.50 71.50Q18 51 41 53Q53 54 76.50 78.50Q100 103 125.50 138.50Q151 174 176 214Q201 254 216 285Q232 322 245.50 355Q259 388 267.50 414Q276 440 279 457.50Q282 475 277 481Q272 487 286 495Q300 503 321 504Q342 505 362.50 494Q383 483 392 452Q397 435 387 397.50Q377 360 359 313Q341 266 318 214.50Q295 163 274 117.50Q253 72 237 38Q221 4 217-9Q253 15 292 58.50Q331 102 365 149.50Q399 197 425 242Q451 287 461 314Q464 323 471 325.50Q478 328 484 326Q490 324 493.50 318Q497 312 494 305Q471 254 436.50 197.50Q402 141 361 89Q320 37 275-4.50Q230-46 187-68Q181-83 171-106.50Q161-130 150.50-154Q140-178 131.50-199Q123-220 119-230Q109-258 87.50-277.50Q66-297 39-307.50Q12-318-17-319.50Q-46-321-71-313.50Q-96-306-114.50-288.50Q-133-271-138-244M42-135Q27-147 8-156Q-11-165-30-174Q-49-183-66.50-194Q-84-205-95-220Q-102-230-100.50-242Q-99-254-91.50-263.50Q-84-273-72.50-278Q-61-283-47-279Q-33-275-18-259.50Q-3-244 10-212Q16-198 24.50-179Q33-160 42-135M115 595Q115 612 128 624Q141 636 160 636Q179 636 192 624Q205 612 205 595Q205 578 192 566Q179 554 160 554Q141 554 128 566Q115 578 115 595M255 595Q255 612 268 624Q281 636 300 636Q319 636 332 624Q345 612 345 595Q345 578 332 566Q319 554 300 554Q281 554 268 566Q255 578 255 595Z"  horiz-adv-x="461" vert-adv-y="1000"  />

      
      <glyph glyph-name="unifd" unicode="&#xfd;" d="M-138-244Q-139-235-135.50-222.50Q-132-210-118-196Q-102-180-79.50-167Q-57-154-32.50-142Q-8-130 15.50-117.50Q39-105 56-90Q68-53 87.50-7.50Q107 38 129 89Q99 52 68 27.50Q37 3 8 2Q-12 1-26.50 10Q-41 19-50 35.50Q-59 52-62 75.50Q-65 99-62 126Q-58 159-46.50 196Q-35 233-20 270Q-5 307 10.50 341.50Q26 376 37.50 404Q49 432 53.50 451.50Q58 471 51 477Q44 483 57.50 491Q71 499 91 500Q111 501 132.50 491Q154 481 163 451Q172 422 160 380.50Q148 339 126.50 294Q105 249 80.50 205Q56 161 39.50 126.50Q23 92 20.50 71.50Q18 51 41 53Q53 54 76.50 78.50Q100 103 125.50 138.50Q151 174 176 214Q201 254 216 285Q232 322 245.50 355Q259 388 267.50 414Q276 440 279 457.50Q282 475 277 481Q272 487 286 495Q300 503 321 504Q342 505 362.50 494Q383 483 392 452Q397 435 387 397.50Q377 360 359 313Q341 266 318 214.50Q295 163 274 117.50Q253 72 237 38Q221 4 217-9Q253 15 292 58.50Q331 102 365 149.50Q399 197 425 242Q451 287 461 314Q464 323 471 325.50Q478 328 484 326Q490 324 493.50 318Q497 312 494 305Q471 254 436.50 197.50Q402 141 361 89Q320 37 275-4.50Q230-46 187-68Q181-83 171-106.50Q161-130 150.50-154Q140-178 131.50-199Q123-220 119-230Q109-258 87.50-277.50Q66-297 39-307.50Q12-318-17-319.50Q-46-321-71-313.50Q-96-306-114.50-288.50Q-133-271-138-244M42-135Q27-147 8-156Q-11-165-30-174Q-49-183-66.50-194Q-84-205-95-220Q-102-230-100.50-242Q-99-254-91.50-263.50Q-84-273-72.50-278Q-61-283-47-279Q-33-275-18-259.50Q-3-244 10-212Q16-198 24.50-179Q33-160 42-135M233 734Q231 741 244.50 742Q258 743 275 738Q292 733 306.50 722Q321 711 321 694Q322 666 309 635.50Q296 605 276.50 582Q257 559 236 547Q215 535 201 544Q192 550 196.50 576Q201 602 210 633.50Q219 665 227.50 693.50Q236 722 233 734Z"  horiz-adv-x="461" vert-adv-y="1000"  />

      
      <glyph glyph-name="unie4" unicode="&#xe4;" d="M253 421Q253 429 257.50 436Q262 443 269 448Q264 460 253 460Q239 461 222 447.50Q205 434 185.50 408.50Q166 383 145 345.50Q124 308 103 262Q90 233 81.50 199.50Q73 166 72 135.50Q71 105 78 82Q85 59 103 52Q117 46 132.50 55Q148 64 163.50 83Q179 102 195.50 129Q212 156 227.50 185.50Q243 215 257.50 244.50Q272 274 285 299Q299 332 312.50 361.50Q326 391 335 414.50Q344 438 347 454.50Q350 471 344 477Q337 483 350.50 491Q364 499 384 500Q404 501 425.50 491Q447 481 456 451Q465 422 453 380.50Q441 339 419.50 294Q398 249 373.50 205Q349 161 332.50 126.50Q316 92 313.50 71.50Q311 51 334 53Q343 54 359 69Q375 84 394 107.50Q413 131 433.50 160Q454 189 471.50 218Q489 247 503 273Q517 299 523 316Q526 324 533 326Q540 328 546 326Q552 324 555.50 318Q559 312 555 305Q547 288 532 258.50Q517 229 496.50 195.50Q476 162 452 128Q428 94 402.50 66Q377 38 351 20Q325 2 301 2Q263 0 244 33Q225 66 230 117Q211 86 190 60.50Q169 35 144.50 20Q120 5 92.50 2Q65-1 32 13Q-8 29-25.50 60Q-43 91-46 127.50Q-49 164-40 203.50Q-31 243-18 276Q6 337 35.50 380.50Q65 424 98 451.50Q131 479 166 491Q201 503 237 502Q249 501 262.50 497.50Q276 494 287.50 486Q299 478 307 464.50Q315 451 315 431Q315 409 305 401Q297 392 284 392Q272 392 262.50 400Q253 408 253 421M146 595Q146 612 159 624Q172 636 191 636Q210 636 223 624Q236 612 236 595Q236 578 223 566Q210 554 191 554Q172 554 159 566Q146 578 146 595M286 595Q286 612 299 624Q312 636 331 636Q350 636 363 624Q376 612 376 595Q376 578 363 566Q350 554 331 554Q312 554 299 566Q286 578 286 595Z"  horiz-adv-x="523" vert-adv-y="1000"  />

      
      <glyph glyph-name="uni02D9" unicode="&#x02D9;" d="M29 595Q29 612 42 624Q55 636 74 636Q93 636 106 624Q119 612 119 595Q119 578 106 566Q93 554 74 554Q55 554 42 566Q29 578 29 595Z"  horiz-adv-x="149" vert-adv-y="1000"  />

      
      <glyph glyph-name="uniaf" unicode="&#xaf;" d="M37 645Q48 654 73.50 656Q99 658 131 657Q163 656 197.50 653Q232 650 261.50 648Q291 646 310.50 646.50Q330 647 333 653Q335 657 342 651.50Q349 646 353.50 636Q358 626 356.50 613Q355 600 342 590Q330 581 305 579.50Q280 578 248.50 580Q217 582 183.50 587Q150 592 120.50 595Q91 598 70 598Q49 598 43 591Q40 587 33.50 591Q27 595 23.50 603.50Q20 612 22 623Q24 634 37 645Z"  horiz-adv-x="381" vert-adv-y="1000"  />

      
      <glyph glyph-name="uni015B" unicode="&#x015B;" d="M119 23L118 22Q96 11 76 5Q56-1 42-1Q2-1-19.50 19.50Q-41 40-48 68Q-55 96-50 124Q-45 152-31 167Q-11 188 5 195Q21 202 32 200Q43 199 52.50 191Q62 183 62 171Q62 158 52.50 149Q43 140 31 140Q22 140 14 145.50Q6 151 3 160Q-10 145-15 124Q-20 103-17 84Q-14 65-1.50 51.50Q11 38 33 37Q41 37 56 44.50Q71 52 86.50 69.50Q102 87 114 114.50Q126 142 128.50 181Q131 220 120 272Q109 324 78 389Q68 370 55.50 347.50Q43 325 33 305Q28 298 21 297Q14 296 8 298.50Q2 301-0.50 306.50Q-3 312 1 319Q9 336 16 349.50Q23 363 30 375Q37 387 43 399.50Q49 412 56 426Q45 442 39 461Q33 480 33 501Q33 510 36.50 523.50Q40 537 48.50 550.50Q57 564 72 573.50Q87 583 111 583Q136 583 147.50 572Q159 561 160 544Q161 527 153 506.50Q145 486 132 466L129 460Q168 415 191.50 374Q215 333 227 296Q239 259 240.50 227Q242 195 235 167Q268 205 294 242Q320 279 337 312Q340 319 346 321.50Q352 324 361 319Q368 315 369.50 308Q371 301 368 295Q344 246 312.50 203Q281 160 243 117Q216 87 186.50 63Q157 39 120 23L119 23M131 814Q129 821 142.50 822Q156 823 173 818Q190 813 204.50 802Q219 791 219 774Q220 746 207 715.50Q194 685 174.50 662Q155 639 134 627Q113 615 99 624Q90 630 94.50 656Q99 682 108 713.50Q117 745 125.50 773.50Q134 802 131 814Z"  horiz-adv-x="337" vert-adv-y="1000"  />

      
      <glyph glyph-name="uni017C" unicode="&#x017C;" d="M470 316Q472 323 478.50 325.50Q485 328 492 326Q500 324 503 318Q506 312 502 304Q492 282 477 254.50Q462 227 445 198Q424 162 398 127Q372 92 343.50 64Q315 36 283 18.50Q251 1 218 0Q194 0 176.50 3.50Q159 7 143.50 11.50Q128 16 112.50 19.50Q97 23 76 23Q47 23 26.50 19Q6 15-7 12.50Q-20 10-25.50 11.50Q-31 13-31 24Q-31 37-16.50 61.50Q-2 86 21.50 117.50Q45 149 75.50 186.50Q106 224 138 264Q170 304 201.50 343.50Q233 383 258 420Q234 421 218 428.50Q202 436 190 444.50Q178 453 166 459.50Q154 466 137 466Q111 466 91.50 448.50Q72 431 72 405Q72 374 94.50 354.50Q117 335 149 338Q155 339 151 330Q147 321 136.50 309.50Q126 298 110 288.50Q94 279 75 279Q40 279 15.50 301Q-9 323-9 355Q-9 385 1.50 411Q12 437 30.50 456.50Q49 476 73.50 487Q98 498 126 498Q147 498 162.50 492.50Q178 487 195.50 480.50Q213 474 234 468.50Q255 463 287 463Q318 463 338 464.50Q358 466 372.50 468.50Q387 471 397.50 472.50Q408 474 421 474Q433 474 433 464Q433 459 427 452.50Q421 446 406.50 431Q392 416 368 390.50Q344 365 308.50 323Q273 281 223.50 219.50Q174 158 110 72Q121 72 133 66.50Q145 61 158 54.50Q171 48 185 42Q199 36 216 36Q247 35 278.50 55Q310 75 339 106.50Q368 138 393.50 176.50Q419 215 439 252Q449 270 457 285.50Q465 301 470 316M189 595Q189 612 202 624Q215 636 234 636Q253 636 266 624Q279 612 279 595Q279 578 266 566Q253 554 234 554Q215 554 202 566Q189 578 189 595Z"  horiz-adv-x="469" vert-adv-y="1000"  />

      
      <glyph glyph-name="uni017A" unicode="&#x017A;" d="M470 316Q465 301 457 285.50Q449 270 439 252Q419 215 393.50 176.50Q368 138 339 106.50Q310 75 278.50 55Q247 35 216 36Q199 36 185 42Q171 48 158 54.50Q145 61 133 66.50Q121 72 110 72Q174 158 223.50 219.50Q273 281 308.50 323Q344 365 368 390.50Q392 416 406.50 431Q421 446 427 452.50Q433 459 433 464Q433 474 421 474Q408 474 397.50 472.50Q387 471 372.50 468.50Q358 466 338 464.50Q318 463 287 463Q255 463 234 468.50Q213 474 195.50 480.50Q178 487 162.50 492.50Q147 498 126 498Q98 498 73.50 487Q49 476 30.50 456.50Q12 437 1.50 411Q-9 385-9 355Q-9 323 15.50 301Q40 279 75 279Q94 279 110 288.50Q126 298 136.50 309.50Q147 321 151 330Q155 339 149 338Q117 335 94.50 354.50Q72 374 72 405Q72 431 91.50 448.50Q111 466 137 466Q154 466 166 459.50Q178 453 190 444.50Q202 436 218 428.50Q234 421 258 420Q233 383 201.50 343.50Q170 304 138 264Q106 224 75.50 186.50Q45 149 21.50 117.50Q-2 86-16.50 61.50Q-31 37-31 24Q-31 13-25.50 11.50Q-20 10-7 12.50Q6 15 26.50 19Q47 23 76 23Q97 23 112.50 19.50Q128 16 143.50 11.50Q159 7 176.50 3.50Q194 0 218 0Q251 1 283 18.50Q315 36 343.50 64Q372 92 398 127Q424 162 445 198Q462 227 477 254.50Q492 282 502 304Q506 312 503 318Q500 324 492 326Q485 328 478.50 325.50Q472 323 470 316M217 734Q215 741 228.50 742Q242 743 259 738Q276 733 290.50 722Q305 711 305 694Q306 666 293 635.50Q280 605 260.50 582Q241 559 220 547Q199 535 185 544Q176 550 180.50 576Q185 602 194 633.50Q203 665 211.50 693.50Q220 722 217 734Z"  horiz-adv-x="469" vert-adv-y="1000"  />

      
      <glyph glyph-name="uni0107" unicode="&#x0107;" d="M256 421Q256 408 265.50 400Q275 392 287 392Q301 392 309 402Q318 411 318 431Q318 451 310 464.50Q302 478 290.50 486Q279 494 265.50 497.50Q252 501 240 502Q204 503 169 491Q134 479 101 451.50Q68 424 38.50 380.50Q9 337-15 276Q-28 243-37 203.50Q-46 164-43 127.50Q-40 91-22.50 60Q-5 29 35 13Q71-2 108.50 4Q146 10 181.50 30.50Q217 51 250.50 83.50Q284 116 313 153Q342 190 365.50 229.50Q389 269 405 304Q411 318 398 325Q390 329 383 326.50Q376 324 373 316Q363 290 345.50 259.50Q328 229 305.50 198Q283 167 257.50 139Q232 111 205.50 90Q179 69 153.50 58.50Q128 48 106 52Q87 56 80 78.50Q73 101 74.50 132Q76 163 84.50 198Q93 233 106 262Q127 308 148 345.50Q169 383 188.50 408.50Q208 434 225 447.50Q242 461 256 460Q267 460 272 448Q265 443 260.50 436Q256 429 256 421M169 734Q167 741 180.50 742Q194 743 211 738Q228 733 242.50 722Q257 711 257 694Q258 666 245 635.50Q232 605 212.50 582Q193 559 172 547Q151 535 137 544Q128 550 132.50 576Q137 602 146 633.50Q155 665 163.50 693.50Q172 722 169 734Z"  horiz-adv-x="373" vert-adv-y="1000"  />

      
      <glyph glyph-name="uni0155" unicode="&#x0155;" d="M29 295Q35 306 44 326.50Q53 347 62 368.50Q71 390 78.50 408.50Q86 427 89 434Q115 427 141.50 428.50Q168 430 189 438Q181 412 164 375Q147 338 129 295.50Q111 253 96 209Q81 165 77 126Q74 99 77 75.50Q80 52 89 35.50Q98 19 112.50 10Q127 1 147 2Q171 2 197 20Q223 38 248.50 66Q274 94 298 128Q322 162 342.50 195.50Q363 229 378 258.50Q393 288 401 305Q405 312 401.50 318Q398 324 392 326Q386 328 379 326Q372 324 369 316Q363 299 349 273Q335 247 317 218Q299 189 279 160Q259 131 240 107.50Q221 84 205 69Q189 54 180 53Q157 51 159.50 71.50Q162 92 178.50 126.50Q195 161 219.50 205Q244 249 265.50 294Q287 339 299 380.50Q311 422 302 451Q293 480 273 490Q253 500 233 500Q218 500 209 495Q200 490 191 484.50Q182 479 169.50 474Q157 469 135 469Q125 469 116.50 470Q108 471 103 475Q107 490 108.50 513Q110 536 110 549Q109 572 94.50 588.50Q80 605 60 605Q28 605 12 583Q-4 561-4 530Q-4 506 12.50 482Q29 458 52 447Q49 434 41 414.50Q33 395 25 374.50Q17 354 9 335.50Q1 317-2 308Q-5 300-1.50 294.50Q2 289 7.50 287Q13 285 19.50 287Q26 289 29 295M187 734Q185 741 198.50 742Q212 743 229 738Q246 733 260.50 722Q275 711 275 694Q276 666 263 635.50Q250 605 230.50 582Q211 559 190 547Q169 535 155 544Q146 550 150.50 576Q155 602 164 633.50Q173 665 181.50 693.50Q190 722 187 734Z"  horiz-adv-x="368" vert-adv-y="1000"  />

      
      <glyph glyph-name="uni0171" unicode="&#x0171;" d="M492 305Q496 312 492.50 318Q489 324 483 326Q477 328 470 326Q463 324 460 316Q454 299 440 273Q426 247 408 218Q390 189 370 160Q350 131 331 107.50Q312 84 296 69Q280 54 271 53Q248 51 250.50 71.50Q253 92 269.50 126.50Q286 161 310.50 205Q335 249 356.50 294Q378 339 390 380.50Q402 422 393 451Q384 481 362.50 491Q341 501 321 500Q301 499 287.50 491Q274 483 281 477Q288 471 284 453Q280 435 269.50 408.50Q259 382 244.50 350Q230 318 215 283Q199 252 174.50 212.50Q150 173 124.50 137.50Q99 102 76 78Q53 54 41 53Q18 51 20.50 71.50Q23 92 39.50 126.50Q56 161 80.50 205Q105 249 126.50 294Q148 339 160 380.50Q172 422 163 451Q154 481 132.50 491Q111 501 91 500Q71 499 57.50 491Q44 483 51 477Q58 470 53.50 451Q49 432 37.50 404Q26 376 10.50 341.50Q-5 307-20 270Q-35 233-46.50 196Q-58 159-62 126Q-65 99-62 75.50Q-59 52-50 35.50Q-41 19-26.50 10Q-12 1 8 2Q27 2 48 14Q69 26 90 46Q111 66 131.50 91.50Q152 117 171 145Q170 140 169 135.50Q168 131 168 126Q165 99 168 75.50Q171 52 180 35.50Q189 19 203.50 10Q218 1 238 2Q262 2 288 20Q314 38 339.50 66Q365 94 389 128Q413 162 433.50 195.50Q454 229 469 258.50Q484 288 492 305M141 734Q139 741 152.50 742Q166 743 183 738Q200 733 214.50 722Q229 711 229 694Q230 666 217 635.50Q204 605 184.50 582Q165 559 144 547Q123 535 109 544Q100 550 104.50 576Q109 602 118 633.50Q127 665 135.50 693.50Q144 722 141 734M303 734Q301 741 314.50 742Q328 743 345 738Q362 733 376.50 722Q391 711 391 694Q392 666 379 635.50Q366 605 346.50 582Q327 559 306 547Q285 535 271 544Q262 550 266.50 576Q271 602 280 633.50Q289 665 297.50 693.50Q306 722 303 734Z"  horiz-adv-x="459" vert-adv-y="1000"  />

      
      <glyph glyph-name="uni0151" unicode="&#x0151;" d="M318 430Q316 441 312 453.50Q308 466 300 476.50Q292 487 279.50 494.50Q267 502 248 503Q206 505 167.50 490Q129 475 96.50 447Q64 419 38 381.50Q12 344-6 302Q-24 260-33 216.50Q-42 173-41 133Q-39 80-10.50 43Q18 6 68 1Q106-2 139.50 19Q173 40 201 72.50Q229 105 250.50 143Q272 181 286 212Q314 211 341.50 217Q369 223 391.50 234Q414 245 431 261Q448 277 456 296Q459 304 456 310.50Q453 317 447 320Q441 323 434.50 321.50Q428 320 425 313Q423 310 418.50 298.50Q414 287 400.50 275Q387 263 363 253Q339 243 299 242Q311 282 310 303Q309 324 301 333.50Q293 343 282 344Q271 345 264 345Q244 345 231 329Q218 313 215 292Q212 271 220 250.50Q228 230 249 221Q236 195 218.50 164.50Q201 134 182.50 108Q164 82 145.50 65.50Q127 49 112 52Q91 56 82 75.50Q73 95 73.50 125Q74 155 83 191.50Q92 228 107 265.50Q122 303 141.50 338.50Q161 374 182 401Q194 416 206.50 430.50Q219 445 231 453.50Q243 462 253.50 462Q264 462 272 448Q265 443 260.50 436Q256 429 256 421Q256 408 265.50 400Q275 392 287 392Q304 392 312 407Q318 414 318 430M124 734Q122 741 135.50 742Q149 743 166 738Q183 733 197.50 722Q212 711 212 694Q213 666 200 635.50Q187 605 167.50 582Q148 559 127 547Q106 535 92 544Q83 550 87.50 576Q92 602 101 633.50Q110 665 118.50 693.50Q127 722 124 734M286 734Q284 741 297.50 742Q311 743 328 738Q345 733 359.50 722Q374 711 374 694Q375 666 362 635.50Q349 605 329.50 582Q310 559 289 547Q268 535 254 544Q245 550 249.50 576Q254 602 263 633.50Q272 665 280.50 693.50Q289 722 286 734Z"  horiz-adv-x="425" vert-adv-y="1000"  />

      
      <glyph glyph-name="uni0144" unicode="&#x0144;" d="M385 376Q392 431 373 466Q354 501 315 500Q297 500 278 491Q259 482 239 467Q219 452 199.50 432Q180 412 161 390Q165 407 166 422.50Q167 438 163 451Q154 481 133 491Q112 501 91.50 500Q71 499 57.50 491Q44 483 51 477Q59 469 51 441Q43 413 26 374Q9 335-12 288.50Q-33 242-50 197.50Q-67 153-76 114Q-85 75-77 51Q-68 21-50.50 10Q-33-1-16.50-0.50Q0 0 10.50 8.50Q21 17 17 25Q10 39 17.50 65Q25 91 41 125Q57 159 77.50 197.50Q98 236 117 275Q136 303 160 333.50Q184 364 207.50 389.50Q231 415 251 431.50Q271 448 282 449Q303 450 305.50 438Q308 426 300 403.50Q292 381 276 350.50Q260 320 243.50 283.50Q227 247 213 207Q199 167 194 126Q191 103 194.50 80.50Q198 58 207 40Q216 22 230 11.50Q244 1 264 2Q288 2 314 20Q340 38 365.50 66Q391 94 415 128Q439 162 459.50 195.50Q480 229 495 258.50Q510 288 518 305Q522 312 518.50 318Q515 324 509 326Q503 328 496 326Q489 324 486 316Q480 299 466 272.50Q452 246 434 217Q416 188 395.50 158.50Q375 129 356 105.50Q337 82 321 67.50Q305 53 296 53Q276 53 274.50 67.50Q273 82 282 106Q291 130 307.50 162.50Q324 195 340.50 231Q357 267 370 304.50Q383 342 385 376M246 734Q244 741 257.50 742Q271 743 288 738Q305 733 319.50 722Q334 711 334 694Q335 666 322 635.50Q309 605 289.50 582Q270 559 249 547Q228 535 214 544Q205 550 209.50 576Q214 602 223 633.50Q232 665 240.50 693.50Q249 722 246 734Z"  horiz-adv-x="486" vert-adv-y="1000"  />

      
      <glyph glyph-name="uni0163" unicode="&#x0163;" d="M-85-58Q-88-52-75.50-47.50Q-63-43-46-43.50Q-29-44-14-51Q1-58 4-75Q10-113-1.50-148.50Q-13-184-32.50-210Q-52-236-75.50-248Q-99-260-119-250Q-129-245-117.50-228.50Q-106-212-92.50-186.50Q-79-161-72.50-128.50Q-66-96-85-58M-139 543Q-140 529-147 524.50Q-154 520-162.50 525.50Q-171 531-176.50 546.50Q-182 562-180 588Q-176 630-147 652Q-118 674-72.50 681.50Q-27 689 30.50 687Q88 685 150 679Q167 724 175 753Q183 782 178 787Q171 793 184.50 801Q198 809 218 810Q238 811 259.50 801Q281 791 290 761Q295 747 291 723Q287 699 278 669Q322 667 366 669Q410 671 445 676.50Q480 682 501.50 691Q523 700 523 713Q523 728 532 728.50Q541 729 550 721Q559 713 562.50 700Q566 687 554 676Q541 663 512.50 651.50Q484 640 444.50 631.50Q405 623 357 617Q309 611 257 610Q236 556 206.50 493Q177 430 147.50 367.50Q118 305 90.50 247.50Q63 190 46.50 146.50Q30 103 26.50 77Q23 51 41 53Q51 54 66.50 69Q82 84 101 107.50Q120 131 140 160Q160 189 178 218Q196 247 210 273Q224 299 230 316Q233 324 240 326Q247 328 253 326Q259 324 262.50 318Q266 312 262 305Q254 288 239 258.50Q224 229 203.50 195.50Q183 162 159 128Q135 94 109.50 66Q84 38 58 20Q32 2 8 2Q-12 1-26.50 10Q-41 19-50 35.50Q-59 52-62 75.50Q-65 99-62 126Q-58 157-38.50 213.50Q-19 270 8 337.50Q35 405 65.50 476.50Q96 548 122 610Q70 610 23 608.50Q-24 607-59.50 600Q-95 593-116.50 579.50Q-138 566-139 543Z"  horiz-adv-x="230" vert-adv-y="1000"  />

      
      <glyph glyph-name="uni0165" unicode="&#x0165;" d="M402 907Q399 913 411.50 917.50Q424 922 441 921.50Q458 921 473 914Q488 907 491 890Q497 852 485.50 816.50Q474 781 454.50 755Q435 729 411.50 717Q388 705 368 715Q358 720 369.50 736.50Q381 753 394.50 778.50Q408 804 414.50 836.50Q421 869 402 907M-139 543Q-138 566-116.50 579.50Q-95 593-59.50 600Q-24 607 23 608.50Q70 610 122 610Q96 548 65.50 476.50Q35 405 8 337.50Q-19 270-38.50 213.50Q-58 157-62 126Q-65 99-62 75.50Q-59 52-50 35.50Q-41 19-26.50 10Q-12 1 8 2Q32 2 58 20Q84 38 109.50 66Q135 94 159 128Q183 162 203.50 195.50Q224 229 239 258.50Q254 288 262 305Q266 312 262.50 318Q259 324 253 326Q247 328 240 326Q233 324 230 316Q224 299 210 273Q196 247 178 218Q160 189 140 160Q120 131 101 107.50Q82 84 66.50 69Q51 54 41 53Q23 51 26.50 77Q30 103 46.50 146.50Q63 190 90.50 247.50Q118 305 147.50 367.50Q177 430 206.50 493Q236 556 257 610Q309 611 357 617Q405 623 444.50 631.50Q484 640 512.50 651.50Q541 663 554 676Q566 687 562.50 700Q559 713 550 721Q541 729 532 728.50Q523 728 523 713Q523 700 501.50 691Q480 682 445 676.50Q410 671 366 669Q322 667 278 669Q287 699 291 723Q295 747 290 761Q281 791 259.50 801Q238 811 218 810Q198 809 184.50 801Q171 793 178 787Q183 782 175 753Q167 724 150 679Q88 685 30.50 687Q-27 689-72.50 681.50Q-118 674-147 652Q-176 630-180 588Q-182 562-176.50 546.50Q-171 531-162.50 525.50Q-154 520-147 524.50Q-140 529-139 543Z"  horiz-adv-x="230" vert-adv-y="1000"  />

      
      <glyph glyph-name="uni0146" unicode="&#x0146;" d="M85-58Q82-52 94.50-47.50Q107-43 124-43.50Q141-44 156-51Q171-58 174-75Q180-113 168.50-148.50Q157-184 137.50-210Q118-236 94.50-248Q71-260 51-250Q41-245 52.50-228.50Q64-212 77.50-186.50Q91-161 97.50-128.50Q104-96 85-58M385 376Q383 342 370 304.50Q357 267 340.50 231Q324 195 307.50 162.50Q291 130 282 106Q273 82 274.50 67.50Q276 53 296 53Q305 53 321 67.50Q337 82 356 105.50Q375 129 395.50 158.50Q416 188 434 217Q452 246 466 272.50Q480 299 486 316Q489 324 496 326Q503 328 509 326Q515 324 518.50 318Q522 312 518 305Q510 288 495 258.50Q480 229 459.50 195.50Q439 162 415 128Q391 94 365.50 66Q340 38 314 20Q288 2 264 2Q244 1 230 11.50Q216 22 207 40Q198 58 194.50 80.50Q191 103 194 126Q199 167 213 207Q227 247 243.50 283.50Q260 320 276 350.50Q292 381 300 403.50Q308 426 305.50 438Q303 450 282 449Q271 448 251 431.50Q231 415 207.50 389.50Q184 364 160 333.50Q136 303 117 275Q98 236 77.50 197.50Q57 159 41 125Q25 91 17.50 65Q10 39 17 25Q21 17 10.50 8.50Q0 0-16.50-0.50Q-33-1-50.50 10Q-68 21-77 51Q-85 75-76 114Q-67 153-50 197.50Q-33 242-12 288.50Q9 335 26 374Q43 413 51 441Q59 469 51 477Q44 483 57.50 491Q71 499 91.50 500Q112 501 133 491Q154 481 163 451Q167 438 166 422.50Q165 407 161 390Q180 412 199.50 432Q219 452 239 467Q259 482 278 491Q297 500 315 500Q354 501 373 466Q392 431 385 376Z"  horiz-adv-x="486" vert-adv-y="1000"  />

      
      <glyph glyph-name="uni013C" unicode="&#x013C;" d="M-85-58Q-88-52-75.50-47.50Q-63-43-46-43.50Q-29-44-14-51Q1-58 4-75Q10-113-1.50-148.50Q-13-184-32.50-210Q-52-236-75.50-248Q-99-260-119-250Q-129-245-117.50-228.50Q-106-212-92.50-186.50Q-79-161-72.50-128.50Q-66-96-85-58M262 305Q254 288 239 258.50Q224 229 203.50 195.50Q183 162 159 128Q135 94 109.50 66Q84 38 58 20Q32 2 8 2Q-12 1-26.50 10Q-41 19-50 35.50Q-59 52-62 75.50Q-65 99-62 126Q-58 159-37 219Q-16 279 13 350.50Q42 422 74 496.50Q106 571 131.50 633.50Q157 696 171 738Q185 780 178 787Q171 793 184.50 801Q198 809 218 810Q238 811 259.50 801Q281 791 290 761Q297 739 286 696.50Q275 654 253.50 600Q232 546 203 483.50Q174 421 144.50 360Q115 299 88.50 242.50Q62 186 45.50 143.50Q29 101 26.50 76Q24 51 41 53Q51 54 66.50 69Q82 84 101 107.50Q120 131 140 160Q160 189 178 218Q196 247 210 273Q224 299 230 316Q233 324 240 326Q247 328 253 326Q259 324 262.50 318Q266 312 262 305Z"  horiz-adv-x="230" vert-adv-y="1000"  />

      
      <glyph glyph-name="uni0117" unicode="&#x0117;" d="M396 325Q408 317 402 303Q385 267 361.50 227.50Q338 188 308.50 150.50Q279 113 246 81.50Q213 50 177.50 30Q142 10 105 4Q68-2 32 13Q-8 29-25.50 59.50Q-43 90-46 127Q-49 164-40 203.50Q-31 243-18 276Q6 337 35.50 379.50Q65 422 98 449Q131 476 166 489Q201 502 237 502Q274 502 291.50 484Q309 466 309 437Q309 408 293 373Q277 338 247.50 304.50Q218 271 176 243.50Q134 216 82 202Q75 176 72 150.50Q69 125 71 104Q73 83 80.50 69Q88 55 103 52Q125 48 150.50 58.50Q176 69 202.50 90Q229 111 254.50 139Q280 167 302.50 198Q325 229 342.50 259.50Q360 290 370 316Q373 324 380.50 327Q388 330 396 325M103 262Q98 251 95 242Q155 263 193.50 299.50Q232 336 251 371.50Q270 407 270.50 433Q271 459 253 460Q226 461 185 408Q144 355 103 262M140 595Q140 612 153 624Q166 636 185 636Q204 636 217 624Q230 612 230 595Q230 578 217 566Q204 554 185 554Q166 554 153 566Q140 578 140 595Z"  horiz-adv-x="370" vert-adv-y="1000"  />

      
      <glyph glyph-name="uni0101" unicode="&#x0101;" d="M253 421Q253 429 257.50 436Q262 443 269 448Q264 460 253 460Q239 461 222 447.50Q205 434 185.50 408.50Q166 383 145 345.50Q124 308 103 262Q90 233 81.50 199.50Q73 166 72 135.50Q71 105 78 82Q85 59 103 52Q117 46 132.50 55Q148 64 163.50 83Q179 102 195.50 129Q212 156 227.50 185.50Q243 215 257.50 244.50Q272 274 285 299Q299 332 312.50 361.50Q326 391 335 414.50Q344 438 347 454.50Q350 471 344 477Q337 483 350.50 491Q364 499 384 500Q404 501 425.50 491Q447 481 456 451Q465 422 453 380.50Q441 339 419.50 294Q398 249 373.50 205Q349 161 332.50 126.50Q316 92 313.50 71.50Q311 51 334 53Q343 54 359 69Q375 84 394 107.50Q413 131 433.50 160Q454 189 471.50 218Q489 247 503 273Q517 299 523 316Q526 324 533 326Q540 328 546 326Q552 324 555.50 318Q559 312 555 305Q547 288 532 258.50Q517 229 496.50 195.50Q476 162 452 128Q428 94 402.50 66Q377 38 351 20Q325 2 301 2Q263 0 244 33Q225 66 230 117Q211 86 190 60.50Q169 35 144.50 20Q120 5 92.50 2Q65-1 32 13Q-8 29-25.50 60Q-43 91-46 127.50Q-49 164-40 203.50Q-31 243-18 276Q6 337 35.50 380.50Q65 424 98 451.50Q131 479 166 491Q201 503 237 502Q249 501 262.50 497.50Q276 494 287.50 486Q299 478 307 464.50Q315 451 315 431Q315 409 305 401Q297 392 284 392Q272 392 262.50 400Q253 408 253 421M108 645Q119 654 144.50 656Q170 658 202 657Q234 656 268.50 653Q303 650 332.50 648Q362 646 381.50 646.50Q401 647 404 653Q406 657 413 651.50Q420 646 424.50 636Q429 626 427.50 613Q426 600 413 590Q401 581 376 579.50Q351 578 319.50 580Q288 582 254.50 587Q221 592 191.50 595Q162 598 141 598Q120 598 114 591Q111 587 104.50 591Q98 595 94.50 603.50Q91 612 93 623Q95 634 108 645Z"  horiz-adv-x="523" vert-adv-y="1000"  />

      
      <glyph glyph-name="uni0113" unicode="&#x0113;" d="M396 325Q408 317 402 303Q385 267 361.50 227.50Q338 188 308.50 150.50Q279 113 246 81.50Q213 50 177.50 30Q142 10 105 4Q68-2 32 13Q-8 29-25.50 59.50Q-43 90-46 127Q-49 164-40 203.50Q-31 243-18 276Q6 337 35.50 379.50Q65 422 98 449Q131 476 166 489Q201 502 237 502Q274 502 291.50 484Q309 466 309 437Q309 408 293 373Q277 338 247.50 304.50Q218 271 176 243.50Q134 216 82 202Q75 176 72 150.50Q69 125 71 104Q73 83 80.50 69Q88 55 103 52Q125 48 150.50 58.50Q176 69 202.50 90Q229 111 254.50 139Q280 167 302.50 198Q325 229 342.50 259.50Q360 290 370 316Q373 324 380.50 327Q388 330 396 325M103 262Q98 251 95 242Q155 263 193.50 299.50Q232 336 251 371.50Q270 407 270.50 433Q271 459 253 460Q226 461 185 408Q144 355 103 262M32 645Q43 654 68.50 656Q94 658 126 657Q158 656 192.50 653Q227 650 256.50 648Q286 646 305.50 646.50Q325 647 328 653Q330 657 337 651.50Q344 646 348.50 636Q353 626 351.50 613Q350 600 337 590Q325 581 300 579.50Q275 578 243.50 580Q212 582 178.50 587Q145 592 115.50 595Q86 598 65 598Q44 598 38 591Q35 587 28.50 591Q22 595 18.50 603.50Q15 612 17 623Q19 634 32 645Z"  horiz-adv-x="370" vert-adv-y="1000"  />

      
      <glyph glyph-name="uni014D" unicode="&#x014D;" d="M318 430Q318 414 312 407Q304 392 287 392Q275 392 265.50 400Q256 408 256 421Q256 429 260.50 436Q265 443 272 448Q264 462 253.50 462Q243 462 231 453.50Q219 445 206.50 430.50Q194 416 182 401Q161 374 141.50 338.50Q122 303 107 265.50Q92 228 83 191.50Q74 155 73.50 125Q73 95 82 75.50Q91 56 112 52Q127 49 145.50 65.50Q164 82 182.50 108Q201 134 218.50 164.50Q236 195 249 221Q228 230 220 250.50Q212 271 215 292Q218 313 231 329Q244 345 264 345Q271 345 282 344Q293 343 301 333.50Q309 324 310 303Q311 282 299 242Q339 243 363 253Q387 263 400.50 275Q414 287 418.50 298.50Q423 310 425 313Q428 320 434.50 321.50Q441 323 447 320Q453 317 456 310.50Q459 304 456 296Q448 277 431 261Q414 245 391.50 234Q369 223 341.50 217Q314 211 286 212Q272 181 250.50 143Q229 105 201 72.50Q173 40 139.50 19Q106-2 68 1Q18 6-10.50 43Q-39 80-41 133Q-42 173-33 216.50Q-24 260-6 302Q12 344 38 381.50Q64 419 96.50 447Q129 475 167.50 490Q206 505 248 503Q267 502 279.50 494.50Q292 487 300 476.50Q308 466 312 453.50Q316 441 318 430M59 645Q70 654 95.50 656Q121 658 153 657Q185 656 219.50 653Q254 650 283.50 648Q313 646 332.50 646.50Q352 647 355 653Q357 657 364 651.50Q371 646 375.50 636Q380 626 378.50 613Q377 600 364 590Q352 581 327 579.50Q302 578 270.50 580Q239 582 205.50 587Q172 592 142.50 595Q113 598 92 598Q71 598 65 591Q62 587 55.50 591Q49 595 45.50 603.50Q42 612 44 623Q46 634 59 645Z"  horiz-adv-x="425" vert-adv-y="1000"  />

      
      <glyph glyph-name="uni016B" unicode="&#x016B;" d="M492 305Q484 288 469 258.50Q454 229 433.50 195.50Q413 162 389 128Q365 94 339.50 66Q314 38 288 20Q262 2 238 2Q218 1 203.50 10Q189 19 180 35.50Q171 52 168 75.50Q165 99 168 126Q168 131 169 135.50Q170 140 171 145Q152 117 131.50 91.50Q111 66 90 46Q69 26 48 14Q27 2 8 2Q-12 1-26.50 10Q-41 19-50 35.50Q-59 52-62 75.50Q-65 99-62 126Q-58 159-46.50 196Q-35 233-20 270Q-5 307 10.50 341.50Q26 376 37.50 404Q49 432 53.50 451Q58 470 51 477Q44 483 57.50 491Q71 499 91 500Q111 501 132.50 491Q154 481 163 451Q172 422 160 380.50Q148 339 126.50 294Q105 249 80.50 205Q56 161 39.50 126.50Q23 92 20.50 71.50Q18 51 41 53Q53 54 76 78Q99 102 124.50 137.50Q150 173 174.50 212.50Q199 252 215 283Q230 318 244.50 350Q259 382 269.50 408.50Q280 435 284 453Q288 471 281 477Q274 483 287.50 491Q301 499 321 500Q341 501 362.50 491Q384 481 393 451Q402 422 390 380.50Q378 339 356.50 294Q335 249 310.50 205Q286 161 269.50 126.50Q253 92 250.50 71.50Q248 51 271 53Q280 54 296 69Q312 84 331 107.50Q350 131 370 160Q390 189 408 218Q426 247 440 273Q454 299 460 316Q463 324 470 326Q477 328 483 326Q489 324 492.50 318Q496 312 492 305M76 645Q87 654 112.50 656Q138 658 170 657Q202 656 236.50 653Q271 650 300.50 648Q330 646 349.50 646.50Q369 647 372 653Q374 657 381 651.50Q388 646 392.50 636Q397 626 395.50 613Q394 600 381 590Q369 581 344 579.50Q319 578 287.50 580Q256 582 222.50 587Q189 592 159.50 595Q130 598 109 598Q88 598 82 591Q79 587 72.50 591Q66 595 62.50 603.50Q59 612 61 623Q63 634 76 645Z"  horiz-adv-x="459" vert-adv-y="1000"  />

      
      <glyph glyph-name="uni0123" unicode="&#x0123;" d="M268 554Q269 547 256 546Q243 545 227 550Q211 555 198 565.50Q185 576 187 593Q191 631 211 662.50Q231 694 256.50 714Q282 734 308 739.50Q334 745 351 730Q356 725 350.50 718Q345 711 334 700.50Q323 690 309 676Q295 662 284 644Q273 626 267.50 603.50Q262 581 268 554M253 421Q253 429 257.50 436Q262 443 269 448Q264 460 253 460Q239 461 222 447.50Q205 434 185.50 408.50Q166 383 145 345.50Q124 308 103 262Q90 233 81.50 199.50Q73 166 72 135.50Q71 105 78 82Q85 59 103 52Q125 43 150 68.50Q175 94 200 136Q225 178 248.50 226.50Q272 275 292 312Q292 315 293 316Q320 380 334.50 425Q349 470 341 481Q336 487 350 495Q364 503 385 504Q406 505 426.50 494Q447 483 456 452Q461 435 451 397.50Q441 360 423 313Q405 266 382 214.50Q359 163 338 117.50Q317 72 301 38Q285 4 281-9Q317 15 356 58.50Q395 102 429 149.50Q463 197 489 242Q515 287 525 314Q528 323 535 325.50Q542 328 548 326Q554 324 557.50 318Q561 312 558 305Q535 254 500.50 197.50Q466 141 425 89Q384 37 339-4.50Q294-46 251-68Q245-83 235-106.50Q225-130 214.50-154Q204-178 195.50-199Q187-220 183-230Q173-258 151.50-277.50Q130-297 103-307.50Q76-318 47-319.50Q18-321-7-313.50Q-32-306-50.50-288.50Q-69-271-74-244Q-75-235-71.50-222.50Q-68-210-54-196Q-38-180-15.50-167Q7-154 31.50-142Q56-130 79.50-117.50Q103-105 120-90Q130-62 143.50-28Q157 6 173 43Q144 15 109.50 5.50Q75-4 32 13Q-8 29-25.50 60Q-43 91-46 127.50Q-49 164-40 203.50Q-31 243-18 276Q6 337 35.50 380.50Q65 424 98 451.50Q131 479 166 491Q201 503 237 502Q249 501 262.50 497.50Q276 494 287.50 486Q299 478 307 464.50Q315 451 315 431Q315 411 306 402Q298 392 284 392Q272 392 262.50 400Q253 408 253 421M106-135Q91-147 72-156Q53-165 34-174Q15-183-2.50-194Q-20-205-31-220Q-38-230-36.50-242Q-35-254-27.50-263.50Q-20-273-8.50-278Q3-283 17-279Q31-275 46-259.50Q61-244 74-212Q80-198 88.50-179Q97-160 106-135Z"  horiz-adv-x="525" vert-adv-y="1000"  />

      
      <glyph glyph-name="uni0137" unicode="&#x0137;" d="M105-58Q102-52 114.50-47.50Q127-43 144-43.50Q161-44 176-51Q191-58 194-75Q200-113 188.50-148.50Q177-184 157.50-210Q138-236 114.50-248Q91-260 71-250Q61-245 72.50-228.50Q84-212 97.50-186.50Q111-161 117.50-128.50Q124-96 105-58M-78 51Q-84 69-74.50 109Q-65 149-45.50 202.50Q-26 256 0 318Q26 380 53.50 443Q81 506 106.50 565.50Q132 625 151 672Q170 719 179 750Q188 781 182 787Q175 793 188.50 801Q202 809 222.50 810Q243 811 264 801Q285 791 294 761Q300 740 288 696Q276 652 253 594.50Q230 537 199.50 471Q169 405 138 340Q159 357 185 377.50Q211 398 237.50 420Q264 442 289 464.50Q314 487 333.50 506Q353 525 365 540.50Q377 556 377 565Q377 574 392 570Q407 566 422 551.50Q437 537 444 514.50Q451 492 435 465Q423 444 397.50 424Q372 404 340 386Q308 368 273 352Q238 336 206 323Q221 300 243.50 258Q266 216 294 165.50Q322 115 354 63Q386 11 420.50-32Q455-75 489.50-102.50Q524-130 557-131Q566-131 564.50-144.50Q563-158 551-174Q539-190 517-203.50Q495-217 464-216Q417-215 380-178Q343-141 313.50-85.50Q284-30 260.50 34.50Q237 99 217.50 156Q198 213 181.50 252.50Q165 292 148 298Q134 291 123.50 285.50Q113 280 106 275Q84 229 65.50 187.50Q47 146 34.50 113Q22 80 16.50 57Q11 34 16 25Q20 17 9.50 8.50Q-1 0-17.50-0.50Q-34-1-51.50 10Q-69 21-78 51Z"  horiz-adv-x="447" vert-adv-y="1000"  />

      
      <glyph glyph-name="uni0157" unicode="&#x0157;" d="M-65-58Q-68-52-55.50-47.50Q-43-43-26-43.50Q-9-44 6-51Q21-58 24-75Q30-113 18.50-148.50Q7-184-12.50-210Q-32-236-55.50-248Q-79-260-99-250Q-109-245-97.50-228.50Q-86-212-72.50-186.50Q-59-161-52.50-128.50Q-46-96-65-58M29 295Q26 289 19.50 287Q13 285 7.50 287Q2 289-1.50 294.50Q-5 300-2 308Q1 317 9 335.50Q17 354 25 374.50Q33 395 41 414.50Q49 434 52 447Q29 458 12.50 482Q-4 506-4 530Q-4 561 12 583Q28 605 60 605Q80 605 94.50 588.50Q109 572 110 549Q110 536 108.50 513Q107 490 103 475Q108 471 116.50 470Q125 469 135 469Q157 469 169.50 474Q182 479 191 484.50Q200 490 209 495Q218 500 233 500Q253 500 273 490Q293 480 302 451Q311 422 299 380.50Q287 339 265.50 294Q244 249 219.50 205Q195 161 178.50 126.50Q162 92 159.50 71.50Q157 51 180 53Q189 54 205 69Q221 84 240 107.50Q259 131 279 160Q299 189 317 218Q335 247 349 273Q363 299 369 316Q372 324 379 326Q386 328 392 326Q398 324 401.50 318Q405 312 401 305Q393 288 378 258.50Q363 229 342.50 195.50Q322 162 298 128Q274 94 248.50 66Q223 38 197 20Q171 2 147 2Q127 1 112.50 10Q98 19 89 35.50Q80 52 77 75.50Q74 99 77 126Q81 165 96 209Q111 253 129 295.50Q147 338 164 375Q181 412 189 438Q168 430 141.50 428.50Q115 427 89 434Q86 427 78.50 408.50Q71 390 62 368.50Q53 347 44 326.50Q35 306 29 295Z"  horiz-adv-x="368" vert-adv-y="1000"  />

      
      <glyph glyph-name="uni0219" unicode="&#x0219;" d="M-45-58Q-48-52-35.50-47.50Q-23-43-6-43.50Q11-44 26-51Q41-58 44-75Q50-113 38.50-148.50Q27-184 7.50-210Q-12-236-35.50-248Q-59-260-79-250Q-89-245-77.50-228.50Q-66-212-52.50-186.50Q-39-161-32.50-128.50Q-26-96-45-58M119 23L118 22Q96 11 76 5Q56-1 42-1Q2-1-19.50 19.50Q-41 40-48 68Q-55 96-50 124Q-45 152-31 167Q-11 188 5 195Q21 202 32 200Q43 199 52.50 191Q62 183 62 171Q62 158 52.50 149Q43 140 31 140Q22 140 14 145.50Q6 151 3 160Q-10 145-15 124Q-20 103-17 84Q-14 65-1.50 51.50Q11 38 33 37Q41 37 56 44.50Q71 52 86.50 69.50Q102 87 114 114.50Q126 142 128.50 181Q131 220 120 272Q109 324 78 389Q68 370 55.50 347.50Q43 325 33 305Q28 298 21 297Q14 296 8 298.50Q2 301-0.50 306.50Q-3 312 1 319Q9 336 16 349.50Q23 363 30 375Q37 387 43 399.50Q49 412 56 426Q45 442 39 461Q33 480 33 501Q33 510 36.50 523.50Q40 537 48.50 550.50Q57 564 72 573.50Q87 583 111 583Q136 583 147.50 572Q159 561 160 544Q161 527 153 506.50Q145 486 132 466L129 460Q168 415 191.50 374Q215 333 227 296Q239 259 240.50 227Q242 195 235 167Q268 205 294 242Q320 279 337 312Q340 319 346 321.50Q352 324 361 319Q368 315 369.50 308Q371 301 368 295Q344 246 312.50 203Q281 160 243 117Q216 87 186.50 63Q157 39 120 23L119 23Z"  horiz-adv-x="337" vert-adv-y="1000"  />

      
      <glyph glyph-name="uni0131" unicode="&#x0131;" d="M262 305Q254 288 239 258.50Q224 229 203.50 195.50Q183 162 159 128Q135 94 109.50 66Q84 38 58 20Q32 2 8 2Q-12 1-26.50 10Q-41 19-50 35.50Q-59 52-62 75.50Q-65 99-62 126Q-58 159-46.50 196Q-35 233-20 270Q-5 307 10.50 341.50Q26 376 37.50 404Q49 432 53.50 451Q58 470 51 477Q44 483 57.50 491Q71 499 91 500Q111 501 132.50 491Q154 481 163 451Q172 422 160 380.50Q148 339 126.50 294Q105 249 80.50 205Q56 161 39.50 126.50Q23 92 20.50 71.50Q18 51 41 53Q51 54 66.50 69Q82 84 101 107.50Q120 131 140 160Q160 189 178 218Q196 247 210 273Q224 299 230 316Q233 324 240 326Q247 328 253 326Q259 324 262.50 318Q266 312 262 305Z"  horiz-adv-x="230" vert-adv-y="1000"  />

      
      <glyph glyph-name="uniec" unicode="&#xec;" d="M262 305Q254 288 239 258.50Q224 229 203.50 195.50Q183 162 159 128Q135 94 109.50 66Q84 38 58 20Q32 2 8 2Q-12 1-26.50 10Q-41 19-50 35.50Q-59 52-62 75.50Q-65 99-62 126Q-58 159-46.50 196Q-35 233-20 270Q-5 307 10.50 341.50Q26 376 37.50 404Q49 432 53.50 451Q58 470 51 477Q44 483 57.50 491Q71 499 91 500Q111 501 132.50 491Q154 481 163 451Q172 422 160 380.50Q148 339 126.50 294Q105 249 80.50 205Q56 161 39.50 126.50Q23 92 20.50 71.50Q18 51 41 53Q51 54 66.50 69Q82 84 101 107.50Q120 131 140 160Q160 189 178 218Q196 247 210 273Q224 299 230 316Q233 324 240 326Q247 328 253 326Q259 324 262.50 318Q266 312 262 305M132 734Q129 722 137.50 693.50Q146 665 155 633.50Q164 602 168.50 576Q173 550 164 544Q150 535 129 547Q108 559 88.50 582Q69 605 56 635.50Q43 666 44 694Q44 711 58.50 722Q73 733 90 738Q107 743 120 742Q133 741 132 734Z"  horiz-adv-x="230" vert-adv-y="1000"  />

      
      <glyph glyph-name="unied" unicode="&#xed;" d="M262 305Q266 312 262.50 318Q259 324 253 326Q247 328 240 326Q233 324 230 316Q224 299 210 273Q196 247 178 218Q160 189 140 160Q120 131 101 107.50Q82 84 66.50 69Q51 54 41 53Q18 51 20.50 71.50Q23 92 39.50 126.50Q56 161 80.50 205Q105 249 126.50 294Q148 339 160 380.50Q172 422 163 451Q154 481 132.50 491Q111 501 91 500Q71 499 57.50 491Q44 483 51 477Q58 470 53.50 451Q49 432 37.50 404Q26 376 10.50 341.50Q-5 307-20 270Q-35 233-46.50 196Q-58 159-62 126Q-65 99-62 75.50Q-59 52-50 35.50Q-41 19-26.50 10Q-12 1 8 2Q32 2 58 20Q84 38 109.50 66Q135 94 159 128Q183 162 203.50 195.50Q224 229 239 258.50Q254 288 262 305M138 734Q136 741 149.50 742Q163 743 180 738Q197 733 211.50 722Q226 711 226 694Q227 666 214 635.50Q201 605 181.50 582Q162 559 141 547Q120 535 106 544Q97 550 101.50 576Q106 602 115 633.50Q124 665 132.50 693.50Q141 722 138 734Z"  horiz-adv-x="230" vert-adv-y="1000"  />

      
      <glyph glyph-name="unief" unicode="&#xef;" d="M262 305Q254 288 239 258.50Q224 229 203.50 195.50Q183 162 159 128Q135 94 109.50 66Q84 38 58 20Q32 2 8 2Q-12 1-26.50 10Q-41 19-50 35.50Q-59 52-62 75.50Q-65 99-62 126Q-58 159-46.50 196Q-35 233-20 270Q-5 307 10.50 341.50Q26 376 37.50 404Q49 432 53.50 451Q58 470 51 477Q44 483 57.50 491Q71 499 91 500Q111 501 132.50 491Q154 481 163 451Q172 422 160 380.50Q148 339 126.50 294Q105 249 80.50 205Q56 161 39.50 126.50Q23 92 20.50 71.50Q18 51 41 53Q51 54 66.50 69Q82 84 101 107.50Q120 131 140 160Q160 189 178 218Q196 247 210 273Q224 299 230 316Q233 324 240 326Q247 328 253 326Q259 324 262.50 318Q266 312 262 305M0 595Q0 612 13 624Q26 636 45 636Q64 636 77 624Q90 612 90 595Q90 578 77 566Q64 554 45 554Q26 554 13 566Q0 578 0 595M140 595Q140 612 153 624Q166 636 185 636Q204 636 217 624Q230 612 230 595Q230 578 217 566Q204 554 185 554Q166 554 153 566Q140 578 140 595Z"  horiz-adv-x="230" vert-adv-y="1000"  />

      
      <glyph glyph-name="uni0153" unicode="&#x0153;" d="M681 325Q693 317 687 303Q670 267 646.50 227.50Q623 188 593.50 150.50Q564 113 531 81.50Q498 50 462.50 30Q427 10 390 4Q353-2 317 13Q277 28 259.50 58Q242 88 239 125Q223 100 204.50 76.50Q186 53 164 36Q142 19 118 9Q94-1 68 1Q18 6-10.50 43Q-39 80-41 133Q-42 173-33 216.50Q-24 260-6 302Q12 344 38 381.50Q64 419 96.50 447Q129 475 167.50 490Q206 505 248 503Q267 502 279.50 494.50Q292 487 300 476.50Q308 466 312 453.50Q316 441 318 430Q318 414 312 407Q304 392 287 392Q275 392 265.50 400Q256 408 256 421Q256 429 260.50 436Q265 443 272 448Q264 462 253.50 462Q243 462 231 453.50Q219 445 206.50 430.50Q194 416 182 401Q161 374 141.50 338.50Q122 303 107 265.50Q92 228 83 191.50Q74 155 73.50 125Q73 95 82 75.50Q91 56 112 52Q127 49 145.50 65.50Q164 82 182.50 108Q201 134 218.50 164.50Q236 195 249 221Q228 230 220 250.50Q212 271 215 292Q218 313 231 329Q244 345 264 345Q269 345 278 344Q287 343 295 338Q342 425 401 463Q460 501 522 502Q559 502 576.50 484Q594 466 594 437Q594 408 578 373Q562 338 532.50 304.50Q503 271 461 243.50Q419 216 367 202Q360 176 357 150.50Q354 125 356 104Q358 83 365.50 69Q373 55 388 52Q410 48 435.50 58.50Q461 69 487.50 90Q514 111 539.50 139Q565 167 587.50 198Q610 229 627.50 259.50Q645 290 655 316Q658 324 665.50 327Q673 330 681 325M388 262Q383 251 380 242Q440 263 478.50 299.50Q517 336 536 371.50Q555 407 555.50 433Q556 459 538 460Q511 461 470 408Q429 355 388 262Z"  horiz-adv-x="654" vert-adv-y="1000"  />

      
      <glyph glyph-name="uni7e" unicode="&#x7e;" d="M61 204Q54 182 47.50 176.50Q41 171 38 181Q35 191 38.50 216.50Q42 242 54 282Q75 349 101.50 378.50Q128 408 159 412.50Q190 417 224 403.50Q258 390 293 371Q318 352 354.50 337Q391 322 427 317.50Q463 313 491.50 323Q520 333 531 363Q538 386 543.50 385Q549 384 550.50 370.50Q552 357 548 336.50Q544 316 532 300Q518 282 494 266.50Q470 251 434.50 244Q399 237 352 241Q305 245 245 267Q214 276 185.50 281Q157 286 133 281Q109 276 90 258.50Q71 241 61 204Z"  horiz-adv-x="564" vert-adv-y="1000"  />

      
      <glyph glyph-name="uni02DC" unicode="&#x02DC;" d="M37 535Q29 508 23.50 520.50Q18 533 33 582Q46 622 62 640Q78 658 97 661Q116 664 136.50 656Q157 648 178 636Q193 625 215 616Q237 607 259 604Q281 601 298.50 607Q316 613 322 631Q326 645 329.50 644.50Q333 644 334 636Q335 628 332.50 615.50Q330 603 323 593Q315 582 300 572.50Q285 563 263.50 559Q242 555 213.50 557.50Q185 560 149 573Q130 578 112.50 581Q95 584 80.50 581Q66 578 54.50 567.50Q43 557 37 535Z"  horiz-adv-x="342" vert-adv-y="1000"  />

      
      <glyph glyph-name="unie3" unicode="&#xe3;" d="M253 421Q253 429 257.50 436Q262 443 269 448Q264 460 253 460Q239 461 222 447.50Q205 434 185.50 408.50Q166 383 145 345.50Q124 308 103 262Q90 233 81.50 199.50Q73 166 72 135.50Q71 105 78 82Q85 59 103 52Q117 46 132.50 55Q148 64 163.50 83Q179 102 195.50 129Q212 156 227.50 185.50Q243 215 257.50 244.50Q272 274 285 299Q299 332 312.50 361.50Q326 391 335 414.50Q344 438 347 454.50Q350 471 344 477Q337 483 350.50 491Q364 499 384 500Q404 501 425.50 491Q447 481 456 451Q465 422 453 380.50Q441 339 419.50 294Q398 249 373.50 205Q349 161 332.50 126.50Q316 92 313.50 71.50Q311 51 334 53Q343 54 359 69Q375 84 394 107.50Q413 131 433.50 160Q454 189 471.50 218Q489 247 503 273Q517 299 523 316Q526 324 533 326Q540 328 546 326Q552 324 555.50 318Q559 312 555 305Q547 288 532 258.50Q517 229 496.50 195.50Q476 162 452 128Q428 94 402.50 66Q377 38 351 20Q325 2 301 2Q263 0 244 33Q225 66 230 117Q211 86 190 60.50Q169 35 144.50 20Q120 5 92.50 2Q65-1 32 13Q-8 29-25.50 60Q-43 91-46 127.50Q-49 164-40 203.50Q-31 243-18 276Q6 337 35.50 380.50Q65 424 98 451.50Q131 479 166 491Q201 503 237 502Q249 501 262.50 497.50Q276 494 287.50 486Q299 478 307 464.50Q315 451 315 431Q315 409 305 401Q297 392 284 392Q272 392 262.50 400Q253 408 253 421M121 535Q113 508 107.50 520.50Q102 533 117 582Q130 622 146 640Q162 658 181 661Q200 664 220.50 656Q241 648 262 636Q277 625 299 616Q321 607 343 604Q365 601 382.50 607Q400 613 406 631Q410 645 413.50 644.50Q417 644 418 636Q419 628 416.50 615.50Q414 603 407 593Q399 582 384 572.50Q369 563 347.50 559Q326 555 297.50 557.50Q269 560 233 573Q214 578 196.50 581Q179 584 164.50 581Q150 578 138.50 567.50Q127 557 121 535Z"  horiz-adv-x="523" vert-adv-y="1000"  />

      
      <glyph glyph-name="unif5" unicode="&#xf5;" d="M318 430Q318 414 312 407Q304 392 287 392Q275 392 265.50 400Q256 408 256 421Q256 429 260.50 436Q265 443 272 448Q264 462 253.50 462Q243 462 231 453.50Q219 445 206.50 430.50Q194 416 182 401Q161 374 141.50 338.50Q122 303 107 265.50Q92 228 83 191.50Q74 155 73.50 125Q73 95 82 75.50Q91 56 112 52Q127 49 145.50 65.50Q164 82 182.50 108Q201 134 218.50 164.50Q236 195 249 221Q228 230 220 250.50Q212 271 215 292Q218 313 231 329Q244 345 264 345Q271 345 282 344Q293 343 301 333.50Q309 324 310 303Q311 282 299 242Q339 243 363 253Q387 263 400.50 275Q414 287 418.50 298.50Q423 310 425 313Q428 320 434.50 321.50Q441 323 447 320Q453 317 456 310.50Q459 304 456 296Q448 277 431 261Q414 245 391.50 234Q369 223 341.50 217Q314 211 286 212Q272 181 250.50 143Q229 105 201 72.50Q173 40 139.50 19Q106-2 68 1Q18 6-10.50 43Q-39 80-41 133Q-42 173-33 216.50Q-24 260-6 302Q12 344 38 381.50Q64 419 96.50 447Q129 475 167.50 490Q206 505 248 503Q267 502 279.50 494.50Q292 487 300 476.50Q308 466 312 453.50Q316 441 318 430M72 535Q64 508 58.50 520.50Q53 533 68 582Q81 622 97 640Q113 658 132 661Q151 664 171.50 656Q192 648 213 636Q228 625 250 616Q272 607 294 604Q316 601 333.50 607Q351 613 357 631Q361 645 364.50 644.50Q368 644 369 636Q370 628 367.50 615.50Q365 603 358 593Q350 582 335 572.50Q320 563 298.50 559Q277 555 248.50 557.50Q220 560 184 573Q165 578 147.50 581Q130 584 115.50 581Q101 578 89.50 567.50Q78 557 72 535Z"  horiz-adv-x="425" vert-adv-y="1000"  />

      
      <glyph glyph-name="unif1" unicode="&#xf1;" d="M385 376Q383 342 370 304.50Q357 267 340.50 231Q324 195 307.50 162.50Q291 130 282 106Q273 82 274.50 67.50Q276 53 296 53Q305 53 321 67.50Q337 82 356 105.50Q375 129 395.50 158.50Q416 188 434 217Q452 246 466 272.50Q480 299 486 316Q489 324 496 326Q503 328 509 326Q515 324 518.50 318Q522 312 518 305Q510 288 495 258.50Q480 229 459.50 195.50Q439 162 415 128Q391 94 365.50 66Q340 38 314 20Q288 2 264 2Q244 1 230 11.50Q216 22 207 40Q198 58 194.50 80.50Q191 103 194 126Q199 167 213 207Q227 247 243.50 283.50Q260 320 276 350.50Q292 381 300 403.50Q308 426 305.50 438Q303 450 282 449Q271 448 251 431.50Q231 415 207.50 389.50Q184 364 160 333.50Q136 303 117 275Q98 236 77.50 197.50Q57 159 41 125Q25 91 17.50 65Q10 39 17 25Q21 17 10.50 8.50Q0 0-16.50-0.50Q-33-1-50.50 10Q-68 21-77 51Q-85 75-76 114Q-67 153-50 197.50Q-33 242-12 288.50Q9 335 26 374Q43 413 51 441Q59 469 51 477Q44 483 57.50 491Q71 499 91.50 500Q112 501 133 491Q154 481 163 451Q167 438 166 422.50Q165 407 161 390Q180 412 199.50 432Q219 452 239 467Q259 482 278 491Q297 500 315 500Q354 501 373 466Q392 431 385 376M102 535Q94 508 88.50 520.50Q83 533 98 582Q111 622 127 640Q143 658 162 661Q181 664 201.50 656Q222 648 243 636Q258 625 280 616Q302 607 324 604Q346 601 363.50 607Q381 613 387 631Q391 645 394.50 644.50Q398 644 399 636Q400 628 397.50 615.50Q395 603 388 593Q380 582 365 572.50Q350 563 328.50 559Q307 555 278.50 557.50Q250 560 214 573Q195 578 177.50 581Q160 584 145.50 581Q131 578 119.50 567.50Q108 557 102 535Z"  horiz-adv-x="486" vert-adv-y="1000"  />

      
      <glyph glyph-name="unif8" unicode="&#xf8;" d="M347 491Q345 498 355.50 500.50Q366 503 378.50 500Q391 497 402.50 487.50Q414 478 414 461Q415 442 385.50 401.50Q356 361 309 310Q312 287 299 242Q339 243 363 253Q387 263 400.50 275Q414 287 418.50 298.50Q423 310 425 313Q428 320 434.50 321.50Q441 323 447 320Q453 317 456 310.50Q459 304 456 296Q448 277 431 261Q414 245 391.50 234Q369 223 341.50 217Q314 211 286 212Q272 181 250.50 143Q229 105 201 72.50Q173 40 139.50 19Q106-2 68 1Q30 4 3 28Q-35 1-46 7Q-49 9-41.50 21.50Q-34 34-19 54Q-40 89-41 133Q-42 173-33 216.50Q-24 260-6 302Q12 344 38 381.50Q64 419 96.50 447Q129 475 167.50 490Q206 505 248 503Q280 501 295.50 481.50Q311 462 316 442Q331 461 339.50 473.50Q348 486 347 491M78 169Q128 226 181 285.50Q234 345 276 394Q268 397 262 404Q256 411 256 421Q256 429 260.50 436Q265 443 272 448Q264 462 253.50 462Q243 462 231 453.50Q219 445 206.50 430.50Q194 416 182 401Q164 378 147.50 350Q131 322 117.50 291Q104 260 93.50 228.50Q83 197 78 169M233 230Q194 191 153.50 154Q113 117 77 86Q86 56 112 52Q127 49 145.50 65.50Q164 82 182.50 108Q201 134 218.50 164.50Q236 195 249 221Q241 224 233 230Z"  horiz-adv-x="425" vert-adv-y="1000"  />

      
      <glyph glyph-name="uni012B" unicode="&#x012B;" d="M262 305Q254 288 239 258.50Q224 229 203.50 195.50Q183 162 159 128Q135 94 109.50 66Q84 38 58 20Q32 2 8 2Q-12 1-26.50 10Q-41 19-50 35.50Q-59 52-62 75.50Q-65 99-62 126Q-58 159-46.50 196Q-35 233-20 270Q-5 307 10.50 341.50Q26 376 37.50 404Q49 432 53.50 451Q58 470 51 477Q44 483 57.50 491Q71 499 91 500Q111 501 132.50 491Q154 481 163 451Q172 422 160 380.50Q148 339 126.50 294Q105 249 80.50 205Q56 161 39.50 126.50Q23 92 20.50 71.50Q18 51 41 53Q51 54 66.50 69Q82 84 101 107.50Q120 131 140 160Q160 189 178 218Q196 247 210 273Q224 299 230 316Q233 324 240 326Q247 328 253 326Q259 324 262.50 318Q266 312 262 305M-38 645Q-27 654-1.50 656Q24 658 56 657Q88 656 122.50 653Q157 650 186.50 648Q216 646 235.50 646.50Q255 647 258 653Q260 657 267 651.50Q274 646 278.50 636Q283 626 281.50 613Q280 600 267 590Q255 581 230 579.50Q205 578 173.50 580Q142 582 108.50 587Q75 592 45.50 595Q16 598-5 598Q-26 598-32 591Q-35 587-41.50 591Q-48 595-51.50 603.50Q-55 612-53 623Q-51 634-38 645Z"  horiz-adv-x="230" vert-adv-y="1000"  />

      
      </font>
</defs>
</svg>
